<svg width="105" height="48" viewBox="0 0 105 48" fill="none" xmlns="http://www.w3.org/2000/svg">
<g clip-path="url(#clip0_37_76177)">
<path d="M104.998 28.9972C105.009 28.501 104.938 28.0113 104.777 27.5343C104.767 27.5022 104.754 27.468 104.739 27.4295L99.971 15.6257C100.157 15.3349 100.314 15.0654 100.436 14.8344C101.277 13.4977 102.104 11.9193 102.143 10.1227C102.143 10.1163 102.143 10.1099 102.143 10.1056C102.143 10.0992 102.143 10.0928 102.143 10.0885C102.143 10.0821 102.143 10.0757 102.143 10.0714C102.143 10.065 102.143 10.0586 102.143 10.0543C102.143 10.0479 102.143 10.0415 102.143 10.0372C102.143 10.0308 102.143 10.0244 102.143 10.0201C102.143 10.0137 102.143 10.0072 102.143 10.003C102.143 9.99655 102.143 9.99013 102.143 9.98585C102.143 9.97944 102.143 9.97302 102.143 9.96874C102.143 9.96233 102.143 9.95591 102.143 9.95163C102.143 9.94522 102.143 9.9388 102.143 9.93452C102.143 9.92811 102.143 9.92169 102.143 9.91741C102.143 9.911 102.143 9.90458 102.143 9.9003C102.143 9.89389 102.143 9.88747 102.143 9.88319C102.143 9.87678 102.143 9.87036 102.143 9.86608C102.143 9.85967 102.143 9.85325 102.143 9.84897C102.143 9.84256 102.143 9.83614 102.143 9.83186C102.143 9.82545 102.143 9.81903 102.143 9.81475C102.143 9.80834 102.143 9.80192 102.143 9.79764C102.143 9.79123 102.143 9.78481 102.143 9.78053C102.143 9.77412 102.143 9.7677 102.143 9.76342C102.143 9.75701 102.143 9.75059 102.143 9.74631C102.143 9.7399 102.143 9.73348 102.143 9.7292C102.143 9.72279 102.143 9.71637 102.143 9.71209C102.143 9.70568 102.143 9.69926 102.143 9.69498C102.143 9.68857 102.143 9.68215 102.143 9.67787C102.143 9.67146 102.143 9.66504 102.143 9.66076C102.143 9.65435 102.143 9.64793 102.143 9.64365C102.143 9.63724 102.143 9.63082 102.143 9.62654C102.143 9.62013 102.143 9.61371 102.143 9.60943C102.143 9.60302 102.143 9.5966 102.143 9.59232C102.143 9.58591 102.143 9.57949 102.143 9.57521C102.143 9.5688 102.143 9.56238 102.143 9.5581C102.143 9.55169 102.143 9.54527 102.143 9.54099C102.143 9.53458 102.143 9.52816 102.143 9.52388C102.143 9.51747 102.143 9.51105 102.143 9.50677C102.143 9.50036 102.143 9.49394 102.143 9.48966C102.143 9.48325 102.143 9.47683 102.143 9.47255C102.143 9.46614 102.143 9.45972 102.143 9.45544C102.143 9.44903 102.143 9.44261 102.143 9.43833C102.143 9.43192 102.143 9.4255 102.143 9.42122C102.143 9.41481 102.143 9.40839 102.143 9.40411C102.143 9.3977 102.143 9.39128 102.143 9.387C102.143 9.38059 102.143 9.37417 102.143 9.36989C102.143 9.36348 102.143 9.35706 102.143 9.35278C102.143 9.34637 102.143 9.33995 102.143 9.33567C102.143 9.32926 102.143 9.32284 102.143 9.31856C102.143 9.31215 102.143 9.30573 102.143 9.30145C102.143 9.29504 102.143 9.28862 102.143 9.28434C102.143 9.27793 102.143 9.27151 102.143 9.26723C102.143 9.26082 102.143 9.2544 102.143 9.25012C102.143 9.24371 102.143 9.23729 102.143 9.23301C102.143 9.2266 102.143 9.22018 102.143 9.2159C102.143 9.20949 102.143 9.20307 102.143 9.19879C102.143 9.19238 102.143 9.18596 102.143 9.18168C102.143 9.17527 102.143 9.16885 102.143 9.16457C102.143 9.15816 102.143 9.15174 102.143 9.14746C102.143 9.14105 102.143 9.13463 102.143 9.13035C102.143 9.12394 102.143 9.11752 102.143 9.11324C102.143 9.10683 102.143 9.10041 102.143 9.09613C102.143 9.08972 102.143 9.0833 102.143 9.07902C102.143 9.07261 102.143 9.06619 102.143 9.06191C102.143 9.0555 102.143 9.04908 102.143 9.0448C102.143 9.03839 102.143 9.03197 102.143 9.02769C102.143 9.02128 102.143 9.01486 102.143 9.01058C102.143 9.00417 102.143 8.99775 102.143 8.99347C102.143 8.98706 102.143 8.98064 102.143 8.97636C102.143 8.96995 102.143 8.96353 102.143 8.95925C102.143 8.95284 102.143 8.94642 102.143 8.94214C102.143 8.93573 102.143 8.92931 102.143 8.92503C102.143 8.91862 102.143 8.9122 102.143 8.90792C102.143 8.90151 102.143 8.89509 102.143 8.89081C102.143 8.8844 102.143 8.87798 102.143 8.8737C102.143 8.86729 102.143 8.86087 102.143 8.85659C102.143 8.85018 102.143 8.84376 102.143 8.83948C102.143 8.83307 102.143 8.82665 102.143 8.82237C102.143 8.81596 102.143 8.80954 102.143 8.80526C102.143 8.79885 102.143 8.79243 102.143 8.78815C102.143 8.78174 102.143 8.77532 102.143 8.77104C102.143 8.76463 102.143 8.75821 102.143 8.75393C102.143 8.74752 102.143 8.7411 102.143 8.73682C102.143 8.73041 102.143 8.72399 102.143 8.71971C102.143 8.7133 102.143 8.70688 102.143 8.7026C102.143 8.69619 102.143 8.68977 102.143 8.68549C102.143 8.67908 102.143 8.67266 102.143 8.66838C102.143 8.66197 102.143 8.65555 102.143 8.65127C102.143 8.64486 102.143 8.63844 102.143 8.63416C102.143 8.62775 102.143 8.62133 102.143 8.61705C102.143 8.61064 102.143 8.60422 102.143 8.59994C102.143 8.59353 102.143 8.58711 102.143 8.58283C102.143 8.57642 102.143 8.57 102.143 8.56572C102.143 8.55931 102.143 8.55289 102.143 8.54861C102.143 8.5422 102.143 8.53578 102.143 8.5315C102.143 8.52509 102.143 8.51867 102.143 8.51439C102.143 8.50798 102.143 8.50156 102.143 8.49728C102.143 8.49087 102.143 8.48445 102.143 8.48017C102.143 8.47376 102.143 8.46734 102.143 8.46306C102.143 8.45665 102.143 8.45023 102.143 8.44595C102.143 8.43954 102.143 8.43312 102.143 8.42884C102.143 8.42243 102.143 8.41601 102.143 8.41173C102.143 8.40532 102.143 8.3989 102.143 8.39462C102.143 8.38821 102.143 8.38179 102.143 8.37751C102.143 8.3711 102.143 8.36468 102.143 8.3604C102.143 8.35399 102.143 8.34757 102.143 8.34329C102.143 8.33688 102.143 8.33046 102.143 8.32618C102.143 8.31977 102.143 8.31335 102.143 8.30907C102.143 8.30266 102.143 8.29624 102.143 8.29196C102.143 8.28555 102.143 8.27913 102.143 8.27485C102.143 8.26844 102.143 8.26202 102.143 8.25774C102.143 8.25133 102.143 8.24491 102.143 8.24063C102.143 8.23422 102.143 8.2278 102.143 8.22352C102.143 8.21711 102.143 8.21069 102.143 8.20641C102.143 8.2 102.143 8.19358 102.143 8.1893C102.143 8.18289 102.143 8.17647 102.143 8.17219C102.143 8.16578 102.143 8.15936 102.143 8.15508C102.143 8.14867 102.143 8.14225 102.143 8.13797C102.143 8.13156 102.143 8.12514 102.143 8.12086C102.143 8.11445 102.143 8.10803 102.143 8.10375C102.143 8.09734 102.143 8.09092 102.143 8.08664C102.143 8.08023 102.143 8.07381 102.143 8.06953C102.143 8.06312 102.143 8.0567 102.143 8.05242C102.143 8.04601 102.143 8.03959 102.143 8.03531C102.143 8.0289 102.143 8.02248 102.143 8.0182C102.143 8.01179 102.143 8.00537 102.143 8.00109C102.143 7.99468 102.143 7.98826 102.143 7.98398C102.143 7.97757 102.143 7.97115 102.143 7.96687C102.143 7.96046 102.143 7.95404 102.143 7.94976C102.143 7.94335 102.143 7.93693 102.143 7.93265C102.143 7.92624 102.143 7.91982 102.143 7.91554C102.143 7.90913 102.143 7.90271 102.143 7.89843C102.143 7.89202 102.143 7.8856 102.143 7.88132C102.143 7.87491 102.143 7.86849 102.143 7.86421C102.143 7.8578 102.143 7.85138 102.143 7.8471C102.143 7.84069 102.143 7.83427 102.143 7.82999C102.143 7.82358 102.143 7.81716 102.143 7.81288C102.143 7.80647 102.143 7.80005 102.143 7.79577C102.143 7.78936 102.143 7.78294 102.143 7.77866C102.143 7.77225 102.143 7.76583 102.143 7.76155C102.143 7.75514 102.143 7.74872 102.143 7.74444C102.143 7.73803 102.143 7.73161 102.143 7.72733C102.143 7.72092 102.143 7.7145 102.143 7.71022C102.143 7.70381 102.143 7.69739 102.143 7.69311C102.143 7.6867 102.143 7.68028 102.143 7.676C102.143 7.66959 102.143 7.66317 102.143 7.65889C102.143 7.65248 102.143 7.64606 102.143 7.64178C102.143 7.63537 102.143 7.62895 102.143 7.62467C102.143 7.61826 102.143 7.61184 102.143 7.60756C102.143 7.60115 102.143 7.59473 102.143 7.59045C102.143 7.58404 102.143 7.57762 102.143 7.57334C102.143 7.56693 102.143 7.56051 102.143 7.55623C102.143 7.54982 102.143 7.5434 102.143 7.53912C102.143 7.53271 102.143 7.52629 102.143 7.52201C102.143 7.5156 102.143 7.50918 102.143 7.5049C102.143 7.49849 102.143 7.49207 102.143 7.48779C102.143 7.48138 102.143 7.47496 102.143 7.47068C102.143 7.46427 102.143 7.45785 102.143 7.45357C102.143 7.44716 102.143 7.44074 102.143 7.43646C102.143 7.43005 102.143 7.42363 102.143 7.41935C102.143 7.41294 102.143 7.40652 102.143 7.40224C102.143 7.39583 102.143 7.38941 102.143 7.38513C102.143 7.37872 102.143 7.3723 102.143 7.36802C102.143 7.36161 102.143 7.35519 102.143 7.35091C102.143 7.3445 102.143 7.33808 102.143 7.3338C102.143 7.32739 102.143 7.32097 102.143 7.31669C102.143 7.31028 102.143 7.30386 102.143 7.29958C102.143 7.29317 102.143 7.28675 102.143 7.28247C102.143 7.27606 102.143 7.26964 102.143 7.26536C102.143 7.25895 102.143 7.25253 102.143 7.24825C102.143 7.24184 102.143 7.23542 102.143 7.23114C102.143 7.22473 102.143 7.21831 102.143 7.21403C102.143 7.20762 102.143 7.2012 102.143 7.19692C102.143 7.19051 102.143 7.18409 102.143 7.17981C102.143 7.1734 102.143 7.16698 102.143 7.1627C102.143 7.15629 102.143 7.14987 102.143 7.14559C102.143 7.13918 102.143 7.13276 102.143 7.12848C102.143 7.12207 102.143 7.11565 102.143 7.11137C102.143 7.10496 102.143 7.09854 102.143 7.09426C102.143 7.08785 102.143 7.08143 102.143 7.07715C102.143 7.07074 102.143 7.06432 102.143 7.06004C102.143 7.05363 102.143 7.04721 102.143 7.04293C102.143 7.03652 102.143 7.0301 102.143 7.02582C102.143 7.01941 102.143 7.01299 102.143 7.00871C102.143 7.0023 102.143 6.99588 102.143 6.9916C102.143 6.98519 102.143 6.97877 102.143 6.97449C102.143 6.96808 102.143 6.96166 102.143 6.95738C102.143 6.95097 102.143 6.94455 102.143 6.94027C102.143 6.93386 102.143 6.92744 102.143 6.92316C102.143 6.91675 102.143 6.91033 102.143 6.90605C102.143 6.89964 102.143 6.89322 102.143 6.88894C102.143 6.88253 102.143 6.87611 102.143 6.87183C102.143 6.86542 102.143 6.859 102.143 6.85472C102.143 6.84831 102.143 6.84189 102.143 6.83761C102.143 6.8312 102.143 6.82478 102.143 6.8205C102.143 6.81409 102.143 6.80767 102.143 6.80339C102.143 6.79698 102.143 6.79056 102.143 6.78628C102.143 6.77987 102.143 6.77345 102.143 6.76917C102.143 6.76276 102.143 6.75634 102.143 6.75206C102.143 6.74565 102.143 6.73923 102.143 6.73495C102.143 6.72854 102.143 6.72212 102.143 6.71784C102.143 6.71143 102.143 6.70501 102.143 6.70073C102.149 6.44408 102.139 6.18315 102.111 5.91795C102.066 5.49448 101.978 5.07528 101.847 4.67533C101.346 3.12474 100.232 1.69819 98.7908 0.75928C97.7927 0.111239 96.6661 -0.0256416 95.698 0.389276C94.7577 0.791362 94.098 1.66397 93.8881 2.78682C93.826 3.11832 93.8088 3.43914 93.8174 3.7407C93.8174 3.74712 93.8174 3.75353 93.8174 3.75781C93.8174 3.76423 93.8174 3.77064 93.8174 3.77492C93.8174 3.78134 93.8174 3.78775 93.8174 3.79203C93.8174 3.79845 93.8174 3.80486 93.8174 3.80914C93.8174 3.81556 93.8174 3.82197 93.8174 3.82625C93.8174 3.83267 93.8174 3.83908 93.8174 3.84336C93.8174 3.84978 93.8174 3.85619 93.8174 3.86047C93.8174 3.86689 93.8174 3.8733 93.8174 3.87758C93.8174 3.884 93.8174 3.89041 93.8174 3.89469C93.8174 3.90111 93.8174 3.90752 93.8174 3.9118C93.8174 3.91822 93.8174 3.92463 93.8174 3.92891C93.8174 3.93533 93.8174 3.94174 93.8174 3.94602C93.8174 3.95244 93.8174 3.95885 93.8174 3.96313C93.8174 3.96955 93.8174 3.97596 93.8174 3.98024C93.8174 3.98666 93.8174 3.99307 93.8174 3.99735C93.8174 4.00377 93.8174 4.01018 93.8174 4.01446C93.8174 4.02088 93.8174 4.02729 93.8174 4.03157C93.8174 4.03799 93.8174 4.0444 93.8174 4.04868C93.8174 4.0551 93.8174 4.06151 93.8174 4.06579C93.8174 4.07221 93.8174 4.07862 93.8174 4.0829C93.8174 4.08932 93.8174 4.09573 93.8174 4.10001C93.8174 4.10643 93.8174 4.11284 93.8174 4.11712C93.8174 4.12354 93.8174 4.12995 93.8174 4.13423C93.8174 4.14065 93.8174 4.14706 93.8174 4.15134C93.8174 4.15776 93.8174 4.16417 93.8174 4.16845C93.8174 4.17487 93.8174 4.18128 93.8174 4.18556C93.8174 4.19198 93.8174 4.19839 93.8174 4.20267C93.8174 4.20909 93.8174 4.2155 93.8174 4.21978C93.8174 4.2262 93.8174 4.23261 93.8174 4.23689C93.8174 4.24331 93.8174 4.24972 93.8174 4.254C93.8174 4.26042 93.8174 4.26683 93.8174 4.27111C93.8174 4.27753 93.8174 4.28394 93.8174 4.28822C93.8174 4.29464 93.8174 4.30105 93.8174 4.30533C93.8174 4.31175 93.8174 4.31816 93.8174 4.32244C93.8174 4.32886 93.8174 4.33527 93.8174 4.33955C93.8174 4.34597 93.8174 4.35238 93.8174 4.35666C93.8174 4.36308 93.8174 4.36949 93.8174 4.37377C93.8174 4.38019 93.8174 4.3866 93.8174 4.39088C93.8174 4.3973 93.8174 4.40371 93.8174 4.40799C93.8174 4.41441 93.8174 4.42082 93.8174 4.4251C93.8174 4.43152 93.8174 4.43793 93.8174 4.44221C93.8174 4.44863 93.8174 4.45504 93.8174 4.45932C93.8174 4.46574 93.8174 4.47215 93.8174 4.47643C93.8174 4.48285 93.8174 4.48926 93.8174 4.49354C93.8174 4.49996 93.8174 4.50637 93.8174 4.51065C93.8174 4.51707 93.8174 4.52348 93.8174 4.52776C93.8174 4.53418 93.8174 4.54059 93.8174 4.54487C93.8174 4.55129 93.8174 4.5577 93.8174 4.56198C93.8174 4.5684 93.8174 4.57481 93.8174 4.57909C93.8174 4.58551 93.8174 4.59192 93.8174 4.5962C93.8174 4.60262 93.8174 4.60903 93.8174 4.61331C93.8174 4.61973 93.8174 4.62614 93.8174 4.63042C93.8174 4.63684 93.8174 4.64325 93.8174 4.64753C93.8174 4.65395 93.8174 4.66036 93.8174 4.66464C93.8174 4.67106 93.8174 4.67747 93.8174 4.68175C93.8174 4.68817 93.8174 4.69458 93.8174 4.69886C93.8174 4.70528 93.8174 4.71169 93.8174 4.71597C93.8174 4.72239 93.8174 4.7288 93.8174 4.73308C93.8174 4.7395 93.8174 4.74591 93.8174 4.75019C93.8174 4.75661 93.8174 4.76302 93.8174 4.7673C93.8174 4.77372 93.8174 4.78013 93.8174 4.78441C93.8174 4.79083 93.8174 4.79724 93.8174 4.80152C93.8174 4.80794 93.8174 4.81435 93.8174 4.81863C93.8174 4.82505 93.8174 4.83146 93.8174 4.83574C93.8174 4.84216 93.8174 4.84857 93.8174 4.85285C93.8174 4.85927 93.8174 4.86568 93.8174 4.86996C93.8174 4.87638 93.8174 4.88279 93.8174 4.88707C93.8174 4.89349 93.8174 4.8999 93.8174 4.90418C93.8174 4.9106 93.8174 4.91701 93.8174 4.92129C93.8174 4.92771 93.8174 4.93412 93.8174 4.9384C93.8174 4.94482 93.8174 4.95123 93.8174 4.95551C93.8174 4.96193 93.8174 4.96834 93.8174 4.97262C93.8174 4.97904 93.8174 4.98545 93.8174 4.98973C93.8174 4.99615 93.8174 5.00256 93.8174 5.00684C93.8174 5.01326 93.8174 5.01967 93.8174 5.02395C93.8174 5.03037 93.8174 5.03678 93.8174 5.04106C93.8174 5.04748 93.8174 5.05389 93.8174 5.05817C93.8174 5.06459 93.8174 5.071 93.8174 5.07528C93.8174 5.0817 93.8174 5.08811 93.8174 5.09239C93.8174 5.09881 93.8174 5.10522 93.8174 5.1095C93.8174 5.11592 93.8174 5.12233 93.8174 5.12661C93.8174 5.13303 93.8174 5.13944 93.8174 5.14372C93.8174 5.15014 93.8174 5.15655 93.8174 5.16083C93.8174 5.16725 93.8174 5.17366 93.8174 5.17794C93.8174 5.18436 93.8174 5.19077 93.8174 5.19505C93.8174 5.20147 93.8174 5.20788 93.8174 5.21216C93.8174 5.21858 93.8174 5.22499 93.8174 5.22927C93.8174 5.23569 93.8174 5.2421 93.8174 5.24638C93.8174 5.2528 93.8174 5.25921 93.8174 5.26349C93.8174 5.26991 93.8174 5.27632 93.8174 5.2806C93.8174 5.28702 93.8174 5.29343 93.8174 5.29771C93.8174 5.30413 93.8174 5.31054 93.8174 5.31482C93.8174 5.32124 93.8174 5.32765 93.8174 5.33193C93.8174 5.33835 93.8174 5.34476 93.8174 5.34904C93.8174 5.35546 93.8174 5.36187 93.8174 5.36615C93.8174 5.37257 93.8174 5.37898 93.8174 5.38326C93.8174 5.38968 93.8174 5.39609 93.8174 5.40037C93.8174 5.40679 93.8174 5.4132 93.8174 5.41748C93.8174 5.4239 93.8174 5.43031 93.8174 5.43459C93.8174 5.44101 93.8174 5.44742 93.8174 5.4517C93.8174 5.45812 93.8174 5.46453 93.8174 5.46881C93.8174 5.47523 93.8174 5.48164 93.8174 5.48592C93.8174 5.49234 93.8174 5.49875 93.8174 5.50303C93.8174 5.50945 93.8174 5.51586 93.8174 5.52014C93.8174 5.52656 93.8174 5.53297 93.8174 5.53725C93.8174 5.54367 93.8174 5.55008 93.8174 5.55436C93.8174 5.56078 93.8174 5.56719 93.8174 5.57147C93.8174 5.57147 93.8174 5.57575 93.8174 5.57789C93.5475 5.56506 93.2712 5.57147 92.9885 5.59714C91.7934 5.70621 90.7631 6.07622 89.9407 6.68362C89.9407 6.67721 89.9407 6.67293 89.9407 6.66651C89.9407 6.6601 89.9407 6.65368 89.9407 6.6494C89.9407 6.64299 89.9407 6.63657 89.9407 6.63229C89.9407 6.62588 89.9407 6.61946 89.9407 6.61518C89.9407 6.60877 89.9407 6.60235 89.9407 6.59807C89.9407 6.59166 89.9407 6.58524 89.9407 6.58096C89.9407 6.57455 89.9407 6.56813 89.9407 6.56385C89.9407 6.55744 89.9407 6.55102 89.9407 6.54674C89.9407 6.54033 89.9407 6.53391 89.9407 6.52963C89.9407 6.52322 89.9407 6.5168 89.9407 6.51252C89.9407 6.50611 89.9407 6.49969 89.9407 6.49541C89.9407 6.489 89.9407 6.48258 89.9407 6.4783C89.9407 6.47189 89.9407 6.46547 89.9407 6.46119C89.9407 6.45478 89.9407 6.44836 89.9407 6.44408C89.9407 6.43767 89.9407 6.43125 89.9407 6.42697C89.9407 6.42056 89.9407 6.41414 89.9407 6.40986C89.9407 6.40345 89.9407 6.39703 89.9407 6.39275C89.9407 6.38634 89.9407 6.37992 89.9407 6.37564C89.9407 6.36923 89.9407 6.36281 89.9407 6.35853C89.9407 6.35212 89.9407 6.3457 89.9407 6.34142C89.9407 6.33501 89.9407 6.32859 89.9407 6.32431C89.9407 6.3179 89.9407 6.31148 89.9407 6.3072C89.9407 6.30079 89.9407 6.29437 89.9407 6.29009C89.9407 6.28368 89.9407 6.27726 89.9407 6.27298C89.9407 6.26657 89.9407 6.26015 89.9407 6.25587C89.9407 6.24946 89.9407 6.24304 89.9407 6.23876C89.9407 6.23235 89.9407 6.22593 89.9407 6.22165C89.9407 6.21524 89.9407 6.20882 89.9407 6.20454C89.9407 6.19813 89.9407 6.19171 89.9407 6.18743C89.9407 6.18102 89.9407 6.1746 89.9407 6.17032C89.9407 6.16391 89.9407 6.15749 89.9407 6.15321C89.9407 6.1468 89.9407 6.14038 89.9407 6.1361C89.9407 6.12969 89.9407 6.12327 89.9407 6.11899C89.9407 6.11258 89.9407 6.10616 89.9407 6.10188C89.9407 6.09547 89.9407 6.08905 89.9407 6.08477C89.9407 6.07836 89.9407 6.07194 89.9407 6.06766C89.9407 6.06125 89.9407 6.05483 89.9407 6.05055C89.9407 6.04414 89.9407 6.03772 89.9407 6.03344C89.9407 6.02703 89.9407 6.02061 89.9407 6.01633C89.9407 6.00992 89.9407 6.0035 89.9407 5.99922C89.9407 5.99281 89.9407 5.98639 89.9407 5.98211C89.9407 5.9757 89.9407 5.96928 89.9407 5.965C89.9407 5.95859 89.9407 5.95217 89.9407 5.94789C89.9407 5.94148 89.9407 5.93506 89.9407 5.93078C89.9407 5.92437 89.9407 5.91795 89.9407 5.91367C89.9407 5.90726 89.9407 5.90084 89.9407 5.89656C89.9407 5.89015 89.9407 5.88373 89.9407 5.87945C89.9407 5.87304 89.9407 5.86662 89.9407 5.86234C89.9407 5.85593 89.9407 5.84951 89.9407 5.84523C89.9407 5.83882 89.9407 5.8324 89.9407 5.82812C89.9407 5.82171 89.9407 5.81529 89.9407 5.81101C89.9407 5.8046 89.9407 5.79818 89.9407 5.7939C89.9407 5.78749 89.9407 5.78107 89.9407 5.77679C89.9407 5.77038 89.9407 5.76396 89.9407 5.75968C89.9407 5.75327 89.9407 5.74685 89.9407 5.74257C89.9407 5.73616 89.9407 5.72974 89.9407 5.72546C89.9407 5.71905 89.9407 5.71263 89.9407 5.70835C89.9407 5.70194 89.9407 5.69552 89.9407 5.69124C89.9407 5.68483 89.9407 5.67841 89.9407 5.67413C89.9407 5.66772 89.9407 5.6613 89.9407 5.65702C89.9407 5.65061 89.9407 5.64419 89.9407 5.63991C89.9407 5.6335 89.9407 5.62708 89.9407 5.6228C89.9407 5.61639 89.9407 5.60997 89.9407 5.60569C89.9407 5.59928 89.9407 5.59286 89.9407 5.58858C89.9407 5.58217 89.9407 5.57575 89.9407 5.57147C89.9407 5.56505 89.9407 5.55864 89.9407 5.55436C89.9407 5.54795 89.9407 5.54153 89.9407 5.53725C89.9407 5.53084 89.9407 5.52442 89.9407 5.52014C89.9407 5.51373 89.9407 5.50731 89.9407 5.50303C89.9407 5.49661 89.9407 5.4902 89.9407 5.48592C89.9407 5.47951 89.9407 5.47309 89.9407 5.46881C89.9407 5.4624 89.9407 5.45598 89.9407 5.4517C89.9407 5.44529 89.9407 5.43887 89.9407 5.43459C89.9407 5.42817 89.9407 5.42176 89.9407 5.41748C89.9407 5.41107 89.9407 5.40465 89.9407 5.40037C89.9407 5.39396 89.9407 5.38754 89.9407 5.38326C89.9407 5.37685 89.9407 5.37043 89.9407 5.36615C89.9407 5.35974 89.9407 5.35332 89.9407 5.34904C89.9407 5.34263 89.9407 5.33621 89.9407 5.33193C89.9407 5.32552 89.9407 5.3191 89.9407 5.31482C89.9407 5.30841 89.9407 5.30199 89.9407 5.29771C89.9407 5.2913 89.9407 5.28488 89.9407 5.2806C89.9407 5.27419 89.9407 5.26777 89.9407 5.26349C89.9407 5.25708 89.9407 5.25066 89.9407 5.24638C89.9407 5.23996 89.9407 5.23355 89.9407 5.22927C89.9407 5.22286 89.9407 5.21644 89.9407 5.21216C89.9407 5.20575 89.9407 5.19933 89.9407 5.19505C89.9407 5.18864 89.9407 5.18222 89.9407 5.17794C89.9407 5.17153 89.9407 5.16511 89.9407 5.16083C89.9407 5.15441 89.9407 5.148 89.9407 5.14372C89.9407 5.1373 89.9407 5.13089 89.9407 5.12661C89.9407 5.12019 89.9407 5.11378 89.9407 5.1095C89.9407 5.10309 89.9407 5.09667 89.9407 5.09239C89.9407 5.08597 89.9407 5.07956 89.9407 5.07528C89.9407 5.06886 89.9407 5.06245 89.9407 5.05817C89.9407 5.05175 89.9407 5.04534 89.9407 5.04106C89.9407 5.03464 89.9407 5.02823 89.9407 5.02395C89.9685 4.08718 89.72 3.31937 89.2017 2.73335C88.6191 2.07461 87.7645 1.7538 86.7986 1.82652C84.8516 1.97195 83.5665 3.64446 83.1574 5.23996C83.0675 5.59072 83.0139 5.95431 82.9946 6.32645C81.7845 6.05055 80.9299 5.81957 80.5422 5.70407C80.1288 5.57789 79.6769 5.6335 79.3064 5.85593C78.9358 6.07622 78.6745 6.44622 78.5867 6.86756C78.5503 7.04293 78.5246 7.22045 78.5053 7.39155C78.4839 7.59259 78.4775 7.79149 78.4839 7.98826C78.4839 7.99468 78.4839 8.00109 78.4839 8.00537C78.4839 8.01179 78.4839 8.0182 78.4839 8.02248C78.4839 8.0289 78.4839 8.03531 78.4839 8.03959C78.4839 8.04601 78.4839 8.05242 78.4839 8.0567C78.4839 8.06312 78.4839 8.06953 78.4839 8.07381C78.4839 8.08023 78.4839 8.08664 78.4839 8.09092C78.4839 8.09734 78.4839 8.10375 78.4839 8.10803C78.4839 8.11445 78.4839 8.12086 78.4839 8.12514C78.4839 8.13156 78.4839 8.13797 78.4839 8.14225C78.4839 8.14867 78.4839 8.15508 78.4839 8.15936C78.4839 8.16578 78.4839 8.17219 78.4839 8.17647C78.4839 8.18289 78.4839 8.1893 78.4839 8.19358C78.4839 8.2 78.4839 8.20641 78.4839 8.21069C78.4839 8.21711 78.4839 8.22352 78.4839 8.2278C78.4839 8.23422 78.4839 8.24063 78.4839 8.24491C78.4839 8.25133 78.4839 8.25774 78.4839 8.26202C78.4839 8.26844 78.4839 8.27485 78.4839 8.27913C78.4839 8.28555 78.4839 8.29196 78.4839 8.29624C78.4839 8.30266 78.4839 8.30907 78.4839 8.31335C78.4839 8.31977 78.4839 8.32618 78.4839 8.33046C78.4839 8.33688 78.4839 8.34329 78.4839 8.34757C78.4839 8.35399 78.4839 8.3604 78.4839 8.36468C78.4839 8.3711 78.4839 8.37751 78.4839 8.38179C78.4839 8.38821 78.4839 8.39462 78.4839 8.3989C78.4839 8.40532 78.4839 8.41173 78.4839 8.41601C78.4839 8.42243 78.4839 8.42884 78.4839 8.43312C78.4839 8.43954 78.4839 8.44595 78.4839 8.45023C78.4839 8.45665 78.4839 8.46306 78.4839 8.46734C78.4839 8.47376 78.4839 8.48017 78.4839 8.48445C78.4839 8.49087 78.4839 8.49728 78.4839 8.50156C78.4839 8.50798 78.4839 8.51439 78.4839 8.51867C78.4839 8.52509 78.4839 8.5315 78.4839 8.53578C78.4839 8.5422 78.4839 8.54861 78.4839 8.55289C78.4839 8.55931 78.4839 8.56572 78.4839 8.57C78.4839 8.57642 78.4839 8.58283 78.4839 8.58711C78.4839 8.59353 78.4839 8.59994 78.4839 8.60422C78.4839 8.61064 78.4839 8.61705 78.4839 8.62133C78.4839 8.62775 78.4839 8.63416 78.4839 8.63844C78.4839 8.64486 78.4839 8.65127 78.4839 8.65555C78.4839 8.66197 78.4839 8.66838 78.4839 8.67266C78.4839 8.67908 78.4839 8.68549 78.4839 8.68977C78.4839 8.69619 78.4839 8.7026 78.4839 8.70688C78.4839 8.7133 78.4839 8.71971 78.4839 8.72399C78.4839 8.73041 78.4839 8.73682 78.4839 8.7411C78.4839 8.74752 78.4839 8.75393 78.4839 8.75821C78.4839 8.76463 78.4839 8.77104 78.4839 8.77532C78.4839 8.78174 78.4839 8.78815 78.4839 8.79243C78.4839 8.79885 78.4839 8.80526 78.4839 8.80954C78.4839 8.81596 78.4839 8.82237 78.4839 8.82665C78.4839 8.83307 78.4839 8.83948 78.4839 8.84376C78.4839 8.85018 78.4839 8.85659 78.4839 8.86087C78.4839 8.86729 78.4839 8.8737 78.4839 8.87798C78.4839 8.8844 78.4839 8.89081 78.4839 8.89509C78.4839 8.90151 78.4839 8.90792 78.4839 8.9122C78.4839 8.91862 78.4839 8.92503 78.4839 8.92931C78.4839 8.93573 78.4839 8.94214 78.4839 8.94642C78.4839 8.95284 78.4839 8.95925 78.4839 8.96353C78.4839 8.96995 78.4839 8.97636 78.4839 8.98064C78.4839 8.98706 78.4839 8.99347 78.4839 8.99775C78.4839 9.00417 78.4839 9.01058 78.4839 9.01486C78.4839 9.02128 78.4839 9.02769 78.4839 9.03197C78.4839 9.03839 78.4839 9.0448 78.4839 9.04908C78.4839 9.0555 78.4839 9.06191 78.4839 9.06619C78.4839 9.07261 78.4839 9.07902 78.4839 9.0833C78.4839 9.08972 78.4839 9.09613 78.4839 9.10041C78.4839 9.10683 78.4839 9.11324 78.4839 9.11752C78.4839 9.12394 78.4839 9.13035 78.4839 9.13463C78.4839 9.14105 78.4839 9.14746 78.4839 9.15174C78.4839 9.15816 78.4839 9.16457 78.4839 9.16885C78.4839 9.17527 78.4839 9.18168 78.4839 9.18596C78.4839 9.19238 78.4839 9.19879 78.4839 9.20307C78.4839 9.20949 78.4839 9.2159 78.4839 9.22018C78.4839 9.2266 78.4839 9.23301 78.4839 9.23729C78.4839 9.24371 78.4839 9.25012 78.4839 9.2544C78.4839 9.26082 78.4839 9.26723 78.4839 9.27151C78.4839 9.27793 78.4839 9.28434 78.4839 9.28862C78.4839 9.29504 78.4839 9.30145 78.4839 9.30573C78.4839 9.31215 78.4839 9.31856 78.4839 9.32284C78.4839 9.32926 78.4839 9.33567 78.4839 9.33995C78.4839 9.34637 78.4839 9.35278 78.4839 9.35706C78.4839 9.36348 78.4839 9.36989 78.4839 9.37417C78.4839 9.38059 78.4839 9.387 78.4839 9.39128C78.4839 9.3977 78.4839 9.40411 78.4839 9.40839C78.4839 9.41481 78.4839 9.42122 78.4839 9.4255C78.4839 9.43192 78.4839 9.43833 78.4839 9.44261C78.4839 9.44903 78.4839 9.45544 78.4839 9.45972C78.4839 9.46614 78.4839 9.47255 78.4839 9.47683C78.4839 9.48325 78.4839 9.48966 78.4839 9.49394C78.4839 9.50036 78.4839 9.50677 78.4839 9.51105C78.4839 9.51747 78.4839 9.52388 78.4839 9.52816C78.4839 9.53458 78.4839 9.54099 78.4839 9.54527C78.4839 9.55169 78.4839 9.5581 78.4839 9.56238C78.4839 9.5688 78.4839 9.57521 78.4839 9.57949C78.4839 9.58591 78.4839 9.59232 78.4839 9.5966C78.4839 9.60302 78.4839 9.60943 78.4839 9.61371C78.4839 9.62013 78.4839 9.62654 78.4839 9.63082C78.4839 9.63724 78.4839 9.64365 78.4839 9.64793C78.4839 9.65435 78.4839 9.66076 78.4839 9.66504C78.4839 9.67146 78.4839 9.67787 78.4839 9.68215C78.4839 9.68857 78.4839 9.69498 78.4839 9.69926C78.4839 9.70568 78.4839 9.71209 78.4839 9.71637C78.4839 9.72065 78.4839 9.72493 78.4839 9.7292C76.8111 10.2061 75.5024 10.6275 74.8899 10.8307C73.9796 11.1044 73.125 11.5343 72.3561 12.0882C72.3561 12.0882 72.3561 12.0861 72.3561 12.084C72.3561 12.0797 72.3561 12.0776 72.3561 12.0733C72.3561 12.0711 72.3561 12.069 72.3561 12.0647C72.3561 12.0604 72.3561 12.0583 72.3561 12.054C72.3561 12.0519 72.3561 12.0497 72.3561 12.0455C72.3561 12.0412 72.3561 12.0391 72.3561 12.0348C72.3561 12.0326 72.3561 12.0305 72.3561 12.0262C72.3561 12.0219 72.3561 12.0198 72.3561 12.0155C72.3561 12.0134 72.3561 12.0113 72.3561 12.007C72.3561 12.0027 72.3561 12.0006 72.3561 11.9963C72.3561 11.9941 72.3561 11.992 72.3561 11.9877C72.3561 11.9834 72.3561 11.9813 72.3561 11.977C72.3561 11.9749 72.3561 11.9728 72.3561 11.9685C72.3561 11.9642 72.3561 11.9621 72.3561 11.9578C72.3561 11.9556 72.3561 11.9535 72.3561 11.9492C72.3561 11.945 72.3561 11.9428 72.3561 11.9385C72.3561 11.9364 72.3561 11.9343 72.3561 11.93C72.3561 11.9257 72.3561 11.9236 72.3561 11.9193C72.3561 11.9171 72.3561 11.915 72.3561 11.9107C72.3561 11.9065 72.3561 11.9043 72.3561 11.9C72.3561 11.8979 72.3561 11.8958 72.3561 11.8915C72.3561 11.8872 72.3561 11.8851 72.3561 11.8808C72.3561 11.8786 72.3561 11.8765 72.3561 11.8722C72.3561 11.868 72.3561 11.8658 72.3561 11.8615C72.3561 11.8594 72.3561 11.8573 72.3561 11.853C72.3561 11.8487 72.3561 11.8466 72.3561 11.8423C72.3561 11.8402 72.3561 11.838 72.3561 11.8337C72.3561 11.8295 72.3561 11.8273 72.3561 11.823C72.3561 11.8209 72.3561 11.8188 72.3561 11.8145C72.3561 11.8102 72.3561 11.8081 72.3561 11.8038C72.3561 11.8017 72.3561 11.7995 72.3561 11.7952C72.3561 11.791 72.3561 11.7888 72.3561 11.7845C72.3561 11.7824 72.3561 11.7803 72.3561 11.776C72.3561 11.7717 72.3561 11.7696 72.3561 11.7653C72.3561 11.7632 72.3561 11.761 72.3561 11.7567C72.3561 11.7525 72.3561 11.7503 72.3561 11.746C72.3561 11.7439 72.3561 11.7418 72.3561 11.7375C72.3561 11.7332 72.3561 11.7311 72.3561 11.7268C72.3561 11.7247 72.3561 11.7225 72.3561 11.7182C72.3561 11.714 72.3561 11.7118 72.3561 11.7076C72.3561 11.7054 72.3561 11.7033 72.3561 11.699C72.3561 11.6947 72.3561 11.6926 72.3561 11.6883C72.3561 11.6862 72.3561 11.684 72.3561 11.6797C72.3561 11.6755 72.3561 11.6733 72.3561 11.6691C72.3561 11.6669 72.3561 11.6648 72.3561 11.6605C72.3561 11.6562 72.3561 11.6541 72.3561 11.6498C72.3561 11.6477 72.3561 11.6455 72.3561 11.6412C72.3561 11.637 72.3561 11.6348 72.3561 11.6306C72.3561 11.6284 72.3561 11.6263 72.3561 11.622C72.3561 11.6177 72.3561 11.6156 72.3561 11.6113C72.3561 11.6092 72.3561 11.607 72.3561 11.6028C72.3561 11.5985 72.3561 11.5963 72.3561 11.5921C72.3561 11.5899 72.3561 11.5878 72.3561 11.5835C72.3561 11.5792 72.3561 11.5771 72.3561 11.5728C72.3561 11.5707 72.3561 11.5685 72.3561 11.5643C72.3561 11.56 72.3561 11.5578 72.3561 11.5536C72.3561 11.5514 72.3561 11.5493 72.3561 11.545C72.3561 11.5407 72.3561 11.5386 72.3561 11.5343C72.3561 11.5322 72.3561 11.53 72.3561 11.5258C72.3561 11.5215 72.3561 11.5193 72.3561 11.5151C72.3561 11.5129 72.3561 11.5108 72.3561 11.5065C72.3561 11.5022 72.3561 11.5001 72.3561 11.4958C72.3561 11.4937 72.3561 11.4915 72.3561 11.4873C72.3561 11.483 72.3561 11.4808 72.3561 11.4766C72.3561 11.4744 72.3561 11.4723 72.3561 11.468C72.3561 11.4637 72.3561 11.4616 72.3561 11.4573C72.3561 11.4552 72.3561 11.453 72.3561 11.4488C72.3561 11.4445 72.3561 11.4423 72.3561 11.4381C72.3561 11.4359 72.3561 11.4338 72.3561 11.4295C72.3561 11.4252 72.3561 11.4231 72.3561 11.4188C72.3561 11.4167 72.3561 11.4145 72.3561 11.4103C72.3561 11.406 72.3561 11.4038 72.3561 11.3996C72.3561 11.3974 72.3561 11.3953 72.3561 11.391C72.3561 11.3867 72.3561 11.3846 72.3561 11.3803C72.3561 11.3782 72.3561 11.376 72.3561 11.3718C72.3561 11.3675 72.3561 11.3653 72.3561 11.3611C72.3561 11.3589 72.3561 11.3568 72.3561 11.3525C72.3561 11.3482 72.3561 11.3461 72.3561 11.3418C72.3561 11.3397 72.3561 11.3375 72.3561 11.3333C72.3561 11.329 72.3561 11.3269 72.3561 11.3226C72.3561 11.3204 72.3561 11.3183 72.3561 11.314C72.3561 11.3097 72.3561 11.3076 72.3561 11.3033C72.3561 11.3012 72.3561 11.299 72.3561 11.2948C72.3561 11.2905 72.3561 11.2884 72.3561 11.2841C72.3561 11.2819 72.3561 11.2798 72.3561 11.2755C72.3561 11.2712 72.3561 11.2691 72.3561 11.2648C72.3561 11.2627 72.3561 11.2606 72.3561 11.2563C72.3561 11.252 72.3561 11.2499 72.3561 11.2456C72.3561 11.2434 72.3561 11.2413 72.3561 11.237C72.3561 11.2327 72.3561 11.2306 72.3561 11.2263C72.3561 11.2242 72.3561 11.2221 72.3561 11.2178C72.3561 11.2135 72.3561 11.2114 72.3561 11.2071C72.3561 11.2049 72.3561 11.2028 72.3561 11.1985C72.3561 11.1942 72.3561 11.1921 72.3561 11.1878C72.3561 11.1857 72.3561 11.1836 72.3561 11.1793C72.3561 11.175 72.3561 11.1729 72.3561 11.1686C72.3561 11.1664 72.3561 11.1643 72.3561 11.16C72.3561 11.1558 72.3561 11.1536 72.3561 11.1493C72.3561 11.1472 72.3561 11.1451 72.3561 11.1408C72.3561 11.1365 72.3561 11.1344 72.3561 11.1301C72.3561 11.1279 72.3561 11.1258 72.3561 11.1215C72.3561 11.1173 72.3561 11.1151 72.3561 11.1108C72.3561 11.1087 72.3561 11.1066 72.3561 11.1023C72.3561 11.098 72.3561 11.0959 72.3561 11.0916C72.3561 11.0895 72.3561 11.0873 72.3561 11.083C72.3561 11.0788 72.3561 11.0766 72.3561 11.0723C72.3561 11.0702 72.3561 11.0681 72.3561 11.0638C72.3561 11.0595 72.3561 11.0574 72.3561 11.0531C72.3561 11.051 72.3561 11.0488 72.3561 11.0445C72.3561 11.0403 72.3561 11.0381 72.3561 11.0338C72.3561 11.0317 72.3561 11.0296 72.3561 11.0253C72.3561 11.021 72.3561 11.0189 72.3561 11.0146C72.3561 11.0125 72.3561 11.0103 72.3561 11.006C72.3561 11.0018 72.3561 10.9996 72.3561 10.9953C72.3561 10.9932 72.3561 10.9911 72.3561 10.9868C72.3561 10.9825 72.3561 10.9804 72.3561 10.9761C72.3561 10.974 72.3561 10.9718 72.3561 10.9675C72.3561 10.9633 72.3561 10.9611 72.3561 10.9568C72.3561 10.9547 72.3561 10.9526 72.3561 10.9483C72.3561 10.944 72.3561 10.9419 72.3561 10.9376C72.3561 10.9355 72.3561 10.9333 72.3561 10.929C72.3561 10.9248 72.3561 10.9226 72.3561 10.9184C72.3561 10.9162 72.3561 10.9141 72.3561 10.9098C72.3561 10.9055 72.3561 10.9034 72.3561 10.8991C72.3561 10.897 72.3561 10.8948 72.3561 10.8905C72.3561 10.8863 72.3561 10.8841 72.3561 10.8799C72.3561 10.8777 72.3561 10.8756 72.3561 10.8713C72.3561 10.867 72.3561 10.8649 72.3561 10.8606C72.3561 10.8585 72.3561 10.8563 72.3561 10.852C72.3561 10.8478 72.3561 10.8456 72.3561 10.8414C72.3561 10.8392 72.3561 10.8371 72.3561 10.8328C72.3561 10.8285 72.3561 10.8264 72.3561 10.8221C72.3561 10.82 72.3561 10.8178 72.3561 10.8136C72.3561 10.8093 72.3561 10.8071 72.3561 10.8029C72.3561 10.8007 72.3561 10.7986 72.3561 10.7943C72.3561 10.79 72.3561 10.7879 72.3561 10.7836C72.3561 10.7815 72.3561 10.7793 72.3561 10.7751C72.3561 10.7708 72.3561 10.7686 72.3561 10.7644C72.3561 10.7622 72.3561 10.7601 72.3561 10.7558C72.3561 10.7515 72.3561 10.7494 72.3561 10.7451C72.3561 10.743 72.3561 10.7408 72.3561 10.7366C72.3561 10.7323 72.3561 10.7301 72.3561 10.7259C72.3561 10.7237 72.3561 10.7216 72.3561 10.7173C72.3561 10.713 72.3561 10.7109 72.3561 10.7066C72.3561 10.7045 72.3561 10.7023 72.3561 10.6981C72.3561 10.6938 72.3561 10.6916 72.3561 10.6874C72.3561 10.6852 72.3561 10.6831 72.3561 10.6788C72.3561 10.6745 72.3561 10.6724 72.3561 10.6681C72.3561 10.666 72.3561 10.6638 72.3561 10.6596C72.3561 10.6553 72.3561 10.6531 72.3561 10.6489C72.3561 10.6467 72.3561 10.6446 72.3561 10.6403C72.3561 10.636 72.3561 10.6339 72.3561 10.6296C72.3561 10.6275 72.3561 10.6253 72.3561 10.6211C72.3561 10.6168 72.3561 10.6146 72.3561 10.6104C72.3561 10.6082 72.3561 10.6061 72.3561 10.6018C72.3561 10.5975 72.3561 10.5954 72.3561 10.5911C72.3561 10.589 72.3561 10.5868 72.3561 10.5826C72.3561 10.5783 72.3561 10.5761 72.3561 10.5719C72.3561 10.5697 72.3561 10.5676 72.3561 10.5633C72.3561 10.559 72.3561 10.5569 72.3561 10.5526C72.3561 10.5505 72.3561 10.5483 72.3561 10.5441C72.3561 10.5398 72.3561 10.5377 72.3561 10.5334C72.3561 10.5312 72.3561 10.5291 72.3561 10.5248C72.3561 10.5205 72.3561 10.5184 72.3561 10.5141C72.3561 10.512 72.3561 10.5098 72.3561 10.5056C72.3561 10.5013 72.3561 10.4992 72.3561 10.4949C72.3561 10.4927 72.3561 10.4906 72.3561 10.4863C72.3561 10.482 72.3561 10.4799 72.3561 10.4756C72.3561 10.4735 72.3561 10.4714 72.3561 10.4671C72.3561 10.4628 72.3561 10.4607 72.3561 10.4564C72.3561 10.4542 72.3561 10.4521 72.3561 10.4478C72.3561 10.4435 72.3561 10.4414 72.3561 10.4371C72.3561 10.435 72.3561 10.4329 72.3561 10.4286C72.3561 10.4243 72.3561 10.4222 72.3561 10.4179C72.3561 10.4157 72.3561 10.4136 72.3561 10.4093C72.3561 10.405 72.3561 10.4029 72.3561 10.3986C72.3561 10.3965 72.3561 10.3944 72.3561 10.3901C72.3561 10.3858 72.3561 10.3837 72.3561 10.3794C72.3561 10.3772 72.3561 10.3751 72.3561 10.3708C72.3561 10.3666 72.3561 10.3644 72.3561 10.3601C72.3561 10.358 72.3561 10.3559 72.3561 10.3516C72.3561 10.3473 72.3561 10.3452 72.3561 10.3409C72.3561 10.3387 72.3561 10.3366 72.3561 10.3323C72.3561 10.3281 72.3561 10.3259 72.3561 10.3216C72.3561 10.3195 72.3561 10.3174 72.3561 10.3131C72.3561 10.3088 72.3561 10.3067 72.3561 10.3024C72.3561 10.3003 72.3561 10.2981 72.3561 10.2938C72.3561 10.2896 72.3561 10.2874 72.3561 10.2831C72.3561 10.281 72.3561 10.2789 72.3561 10.2746C72.3561 10.2703 72.3561 10.2682 72.3561 10.2639C72.3561 10.2618 72.3561 10.2596 72.3561 10.2553C72.3561 10.2511 72.3561 10.2489 72.3561 10.2446C72.3561 10.2425 72.3561 10.2404 72.3561 10.2361C72.3561 10.2318 72.3561 10.2297 72.3561 10.2254C72.3561 10.2233 72.3561 10.2211 72.3561 10.2168C72.3561 9.50891 71.7842 8.93573 71.0752 8.93359H71.071C71.071 8.93359 71.0602 8.93359 71.0538 8.93359C71.0303 8.93359 71.0067 8.93359 70.9831 8.93573L65.8834 9.23729C65.2558 9.27365 64.7482 9.75915 64.6818 10.3815L64.1956 14.92L62.5592 10.3387C62.375 9.82545 61.8888 9.48539 61.3491 9.48539C61.3234 9.48539 61.2955 9.48539 61.2698 9.48752L53.0965 9.99227C52.6853 10.0179 52.3276 10.2382 52.1113 10.5612C51.8757 10.2853 51.5287 10.1099 51.1367 10.1099H51.1325C51.1325 10.1099 51.1217 10.1099 51.1153 10.1099C51.0918 10.1099 51.0682 10.1099 51.0446 10.112L38.7825 10.8371C38.155 10.8734 37.6474 11.3589 37.581 11.9813L37.4182 13.4955C37.3539 13.4143 37.2875 13.3351 37.2168 13.2581C36.0667 11.9813 34.3018 11.2477 32.3741 11.2477C32.2178 11.2477 32.0593 11.252 31.9008 11.2627L21.3971 11.8637C20.7696 11.9 20.2598 12.3834 20.1934 13.0079L20.1142 13.7436C20.0456 13.6966 19.9749 13.656 19.8978 13.6239C19.765 13.5661 16.6079 12.2273 12.1122 12.2273C11.6731 12.2273 11.2276 12.2401 10.7907 12.2658C3.88535 12.6743 1.12878 15.5701 0.852484 18.1452C0.837491 18.2842 0.828924 18.419 0.826782 18.5537C0.826782 18.5601 0.826782 18.5665 0.826782 18.5708C0.826782 18.5772 0.826782 18.5836 0.826782 18.5879C0.826782 18.5922 0.826782 18.6007 0.826782 18.605C0.826782 18.6093 0.826782 18.6179 0.826782 18.6221C0.826782 18.6264 0.826782 18.635 0.826782 18.6392C0.826782 18.6435 0.826782 18.6521 0.826782 18.6564C0.826782 18.6628 0.826782 18.6692 0.826782 18.6735C0.826782 18.6777 0.826782 18.6863 0.826782 18.6906C0.826782 18.6949 0.826782 18.7034 0.826782 18.7077C0.826782 18.7141 0.826782 18.7205 0.826782 18.7248C0.826782 18.7312 0.826782 18.7376 0.826782 18.7419C0.826782 18.7462 0.826782 18.7547 0.826782 18.759C0.826782 18.7633 0.826782 18.7718 0.826782 18.7761C0.826782 18.7804 0.826782 18.789 0.826782 18.7932C0.826782 18.7997 0.826782 18.8061 0.826782 18.8103C0.826782 18.8146 0.826782 18.8232 0.826782 18.8275C0.826782 18.8317 0.826782 18.8403 0.826782 18.8446C0.826782 18.851 0.826782 18.8574 0.826782 18.8617C0.826782 18.8681 0.826782 18.8745 0.826782 18.8788C0.826782 18.8852 0.826782 18.8916 0.826782 18.8959C0.826782 18.9002 0.826782 18.9087 0.826782 18.913C0.826782 18.9173 0.826782 18.9258 0.826782 18.9301C0.826782 18.9344 0.826782 18.9429 0.826782 18.9472C0.826782 18.9536 0.826782 18.9601 0.826782 18.9643C0.826782 18.9686 0.826782 18.9772 0.826782 18.9814C0.826782 18.9857 0.826782 18.9943 0.826782 18.9986C0.826782 19.005 0.826782 19.0114 0.826782 19.0157C0.826782 19.0221 0.826782 19.0285 0.826782 19.0328C0.826782 19.0371 0.826782 19.0456 0.826782 19.0499C0.826782 19.0542 0.826782 19.0627 0.826782 19.067C0.826782 19.0713 0.826782 19.0798 0.826782 19.0841C0.826782 19.0905 0.826782 19.0969 0.826782 19.1012C0.826782 19.1055 0.826782 19.114 0.826782 19.1183C0.826782 19.1226 0.826782 19.1312 0.826782 19.1354C0.826782 19.1397 0.826782 19.1483 0.826782 19.1525C0.826782 19.159 0.826782 19.1654 0.826782 19.1697C0.826782 19.1761 0.826782 19.1825 0.826782 19.1868C0.826782 19.191 0.826782 19.1996 0.826782 19.2039C0.826782 19.2082 0.826782 19.2167 0.826782 19.221C0.826782 19.2253 0.826782 19.2338 0.826782 19.2381C0.826782 19.2445 0.826782 19.2509 0.826782 19.2552C0.826782 19.2595 0.826782 19.268 0.826782 19.2723C0.826782 19.2766 0.826782 19.2851 0.826782 19.2894C0.826782 19.2958 0.826782 19.3023 0.826782 19.3065C0.826782 19.313 0.826782 19.3194 0.826782 19.3236C0.826782 19.3279 0.826782 19.3365 0.826782 19.3408C0.826782 19.345 0.826782 19.3536 0.826782 19.3579C0.826782 19.3621 0.826782 19.3707 0.826782 19.375C0.826782 19.3814 0.826782 19.3878 0.826782 19.3921C0.826782 19.3964 0.826782 19.4049 0.826782 19.4092C0.826782 19.4135 0.826782 19.422 0.826782 19.4263C0.826782 19.4306 0.826782 19.4391 0.826782 19.4434C0.826782 19.4498 0.826782 19.4562 0.826782 19.4605C0.826782 19.4669 0.826782 19.4734 0.826782 19.4776C0.826782 19.4819 0.826782 19.4905 0.826782 19.4947C0.826782 19.499 0.826782 19.5076 0.826782 19.5119C0.826782 19.5161 0.826782 19.5247 0.826782 19.529C0.826782 19.5354 0.826782 19.5418 0.826782 19.5461C0.826782 19.5504 0.826782 19.5589 0.826782 19.5632C0.826782 19.5675 0.826782 19.576 0.826782 19.5803C0.826782 19.5867 0.826782 19.5931 0.826782 19.5974C0.826782 19.6038 0.826782 19.6102 0.826782 19.6145C0.826782 19.6188 0.826782 19.6273 0.826782 19.6316C0.826782 19.6359 0.826782 19.6445 0.826782 19.6487C0.826782 19.653 0.826782 19.6616 0.826782 19.6658C0.826782 19.6701 0.826782 19.6787 0.826782 19.683C0.826782 19.6894 0.826782 19.6958 0.826782 19.7001C0.826782 19.7043 0.826782 19.7129 0.826782 19.7172C0.826782 19.7215 0.826782 19.73 0.826782 19.7343C0.826782 19.7407 0.826782 19.7471 0.826782 19.7514C0.826782 19.7578 0.826782 19.7642 0.826782 19.7685C0.826782 19.7728 0.826782 19.7813 0.826782 19.7856C0.826782 19.7899 0.826782 19.7984 0.826782 19.8027C0.826782 19.807 0.826782 19.8156 0.826782 19.8198C0.826782 19.8263 0.826782 19.8327 0.826782 19.8369C0.826782 19.8412 0.826782 19.8498 0.826782 19.8541C0.826782 19.8583 0.826782 19.8669 0.826782 19.8712C0.826782 19.8776 0.826782 19.884 0.826782 19.8883C0.826782 19.8947 0.826782 19.9011 0.826782 19.9054C0.826782 19.9097 0.826782 19.9182 0.826782 19.9225C0.826782 19.9268 0.826782 19.9353 0.826782 19.9396C0.826782 19.9439 0.826782 19.9524 0.826782 19.9567C0.826782 19.961 0.826782 19.9695 0.826782 19.9738C0.826782 19.9802 0.826782 19.9867 0.826782 19.9909C0.826782 19.9952 0.826782 20.0038 0.826782 20.008C0.826782 20.0123 0.826782 20.0209 0.826782 20.0252C0.826782 20.0316 0.826782 20.038 0.826782 20.0423C0.826782 20.0487 0.826782 20.0551 0.826782 20.0594C0.826782 20.0637 0.826782 20.0722 0.826782 20.0765C0.826782 20.0808 0.826782 20.0893 0.826782 20.0936C0.826782 20.0979 0.826782 20.1064 0.826782 20.1107C0.826782 20.1171 0.826782 20.1235 0.826782 20.1278C0.826782 20.1321 0.826782 20.1406 0.826782 20.1449C0.826782 20.1492 0.826782 20.1578 0.826782 20.162C0.826782 20.1685 0.826782 20.1749 0.826782 20.1791C0.826782 20.1856 0.826782 20.192 0.826782 20.1963C0.826782 20.2027 0.826782 20.2091 0.826782 20.2134C0.826782 20.2176 0.826782 20.2262 0.826782 20.2305C0.826782 20.2348 0.826782 20.2433 0.826782 20.2476C0.826782 20.2519 0.826782 20.2604 0.826782 20.2647C0.826782 20.2711 0.826782 20.2775 0.826782 20.2818C0.826782 20.2861 0.826782 20.2946 0.826782 20.2989C0.826782 20.3032 0.826782 20.3117 0.826782 20.316C0.826782 20.3224 0.826782 20.3289 0.826782 20.3331C0.826782 20.3396 0.826782 20.346 0.826782 20.3502C0.826782 20.3545 0.826782 20.3631 0.826782 20.3674C0.826782 20.3716 0.826782 20.3802 0.826782 20.3845C0.826782 20.3887 0.826782 20.3973 0.826782 20.4016C0.826782 20.408 0.826782 20.4144 0.826782 20.4187C0.826782 20.423 0.826782 20.4315 0.826782 20.4358C0.826782 20.4401 0.826782 20.4486 0.826782 20.4529C0.826782 20.4593 0.826782 20.4657 0.826782 20.47C0.826782 20.4764 0.826782 20.4828 0.826782 20.4871C0.826782 20.4935 0.826782 20.5 0.826782 20.5042C0.826782 20.5085 0.826782 20.5171 0.826782 20.5213C0.826782 20.5256 0.826782 20.5342 0.826782 20.5385C0.826782 20.5427 0.826782 20.5513 0.826782 20.5556C0.826782 20.562 0.826782 20.5684 0.826782 20.5727C0.826782 20.577 0.826782 20.5855 0.826782 20.5898C0.826782 20.5941 0.826782 20.6026 0.826782 20.6069C0.826782 20.6133 0.826782 20.6197 0.826782 20.624C0.826782 20.6304 0.826782 20.6368 0.826782 20.6411C0.826782 20.6454 0.826782 20.6539 0.826782 20.6582C0.826782 20.6625 0.826782 20.6711 0.826782 20.6753C0.826782 20.6796 0.826782 20.6882 0.826782 20.6924C0.826782 20.6989 0.826782 20.7053 0.826782 20.7096C0.826782 20.7138 0.826782 20.7224 0.826782 20.7267C0.826782 20.7309 0.826782 20.7395 0.826782 20.7438C0.826782 20.7481 0.826782 20.7566 0.826782 20.7609C0.826782 20.7673 0.826782 20.7737 0.826782 20.778C0.826782 20.7844 0.826782 20.7908 0.826782 20.7951C0.826782 20.7994 0.826782 20.8079 0.826782 20.8122C0.826782 20.8165 0.826782 20.825 0.826782 20.8293C0.826782 20.8336 0.826782 20.8422 0.826782 20.8464C0.826782 20.8529 0.826782 20.8593 0.826782 20.8635C0.826782 20.8678 0.826782 20.8764 0.826782 20.8807C0.826782 20.8849 0.826782 20.8935 0.826782 20.8978C0.826782 20.9042 0.826782 20.9106 0.826782 20.9149C0.826782 20.9213 0.826782 20.9277 0.826782 20.932C0.826782 20.9363 0.826782 20.9448 0.826782 20.9491C0.826782 20.9534 0.826782 20.9619 0.826782 20.9662C0.826782 20.9705 0.826782 20.979 0.826782 20.9833C0.826782 20.9897 0.826782 20.9961 0.826782 21.0004C0.826782 21.0068 0.826782 21.0133 0.826782 21.0175C0.826782 21.0218 0.826782 21.0304 0.826782 21.0346C0.826782 21.0389 0.826782 21.0475 0.826782 21.0518C0.826782 21.0582 0.826782 21.0646 0.826782 21.0689C0.826782 21.0753 0.826782 21.0817 0.826782 21.086C0.826782 21.0903 0.826782 21.0988 0.826782 21.1031C0.826782 21.1074 0.826782 21.1159 0.826782 21.1202C0.826782 21.1245 0.826782 21.133 0.826782 21.1373C0.826782 21.1437 0.826782 21.1501 0.826782 21.1544C0.826782 21.1587 0.826782 21.1672 0.826782 21.1715C0.826782 21.1758 0.826782 21.1844 0.826782 21.1886C0.826782 21.1951 0.826782 21.2015 0.826782 21.2057C0.826782 21.2122 0.826782 21.2186 0.826782 21.2229C0.826782 21.2271 0.826782 21.2357 0.826782 21.24C0.826782 21.2442 0.826782 21.2528 0.826782 21.2571C0.826782 21.2614 0.826782 21.2699 0.826782 21.2742C0.826782 21.2785 0.826782 21.287 0.826782 21.2913C0.826782 21.2977 0.826782 21.3041 0.826782 21.3084C0.826782 21.3127 0.826782 21.3212 0.826782 21.3255C0.826782 21.3298 0.826782 21.3383 0.826782 21.3426C0.826782 21.349 0.826782 21.3555 0.826782 21.3597C0.826782 21.3662 0.826782 21.3726 0.826782 21.3768C0.826782 21.3811 0.826782 21.3897 0.826782 21.394C0.826782 21.3982 0.826782 21.4068 0.826782 21.4111C0.826782 21.4153 0.826782 21.4239 0.826782 21.4282C0.826782 21.4346 0.826782 21.441 0.826782 21.4453C0.826782 21.4496 0.826782 21.4581 0.826782 21.4624C0.826782 21.4667 0.826782 21.4752 0.826782 21.4795C0.826782 21.4859 0.826782 21.4923 0.826782 21.4966C0.826782 21.503 0.826782 21.5094 0.826782 21.5137C0.826782 21.5201 0.826782 21.5266 0.826782 21.5308C0.826782 21.5351 0.826782 21.5437 0.826782 21.5479C0.826782 21.5522 0.826782 21.5608 0.826782 21.5651C0.826782 21.5693 0.826782 21.5779 0.826782 21.5822C0.826782 21.5886 0.826782 21.595 0.826782 21.5993C0.826782 21.6036 0.826782 21.6121 0.826782 21.6164C0.826782 21.6207 0.826782 21.6292 0.826782 21.6335C0.826782 21.6399 0.826782 21.6463 0.826782 21.6506C0.826782 21.657 0.826782 21.6634 0.826782 21.6677C0.826782 21.672 0.826782 21.6805 0.826782 21.6848C0.826782 21.6891 0.826782 21.6977 0.826782 21.7019C0.826782 21.7062 0.826782 21.7148 0.826782 21.719C0.826782 21.7255 0.826782 21.7319 0.826782 21.7362C0.826782 21.7404 0.826782 21.749 0.826782 21.7533C0.826782 21.7575 0.826782 21.7661 0.826782 21.7704C0.826782 21.7768 0.826782 21.7832 0.826782 21.7875C0.826782 21.7939 0.826782 21.8003 0.826782 21.8046C0.826782 21.811 0.826782 21.8174 0.826782 21.8217C0.826782 21.826 0.826782 21.8345 0.826782 21.8388C0.826782 21.8431 0.826782 21.8517 0.826782 21.8559C0.826782 21.8602 0.826782 21.8688 0.826782 21.873C0.826782 21.8795 0.826782 21.8859 0.826782 21.8901C0.826782 21.8944 0.826782 21.903 0.826782 21.9073C0.826782 21.9115 0.826782 21.9201 0.826782 21.9244C0.826782 21.9308 0.826782 21.9372 0.826782 21.9415C0.826782 21.9479 0.826782 21.9543 0.826782 21.9586C0.826782 21.9629 0.826782 21.9714 0.826782 21.9757C0.818215 22.4505 0.893179 22.8932 1.04525 23.3017L0.100694 25.4554C0.0300132 25.618 -0.00425647 25.7891 -0.00639832 25.9581C-0.00639832 25.9645 -0.00639832 25.9709 -0.00639832 25.9752C-0.00639832 25.9816 -0.00639832 25.988 -0.00639832 25.9923C-0.00639832 25.9987 -0.00639832 26.0051 -0.00639832 26.0094C-0.00639832 26.0158 -0.00639832 26.0222 -0.00639832 26.0265C-0.00639832 26.0329 -0.00639832 26.0393 -0.00639832 26.0436C-0.00639832 26.05 -0.00639832 26.0564 -0.00639832 26.0607C-0.00639832 26.0671 -0.00639832 26.0735 -0.00639832 26.0778C-0.00639832 26.0842 -0.00639832 26.0907 -0.00639832 26.0949C-0.00639832 26.1013 -0.00639832 26.1078 -0.00639832 26.112C-0.00639832 26.1185 -0.00639832 26.1249 -0.00639832 26.1292C-0.00639832 26.1356 -0.00639832 26.142 -0.00639832 26.1463C-0.00639832 26.1527 -0.00639832 26.1591 -0.00639832 26.1634C-0.00639832 26.1698 -0.00639832 26.1762 -0.00639832 26.1805C-0.00639832 26.1869 -0.00639832 26.1933 -0.00639832 26.1976C-0.00639832 26.204 -0.00639832 26.2104 -0.00639832 26.2147C-0.00639832 26.2211 -0.00639832 26.2275 -0.00639832 26.2318C-0.00639832 26.2382 -0.00639832 26.2446 -0.00639832 26.2489C-0.00639832 26.2553 -0.00639832 26.2618 -0.00639832 26.266C-0.00639832 26.2724 -0.00639832 26.2789 -0.00639832 26.2831C-0.00639832 26.2896 -0.00639832 26.296 -0.00639832 26.3003C-0.00639832 26.3067 -0.00639832 26.3131 -0.00639832 26.3174C-0.00639832 26.3238 -0.00639832 26.3302 -0.00639832 26.3345C-0.00639832 26.3409 -0.00639832 26.3473 -0.00639832 26.3516C-0.00639832 26.358 -0.00639832 26.3644 -0.00639832 26.3687C-0.00639832 26.3751 -0.00639832 26.3815 -0.00639832 26.3858C-0.00639832 26.3922 -0.00639832 26.3986 -0.00639832 26.4029C-0.00639832 26.4093 -0.00639832 26.4157 -0.00639832 26.42C-0.00639832 26.4264 -0.00639832 26.4329 -0.00639832 26.4371C-0.00639832 26.4435 -0.00639832 26.45 -0.00639832 26.4542C-0.00639832 26.4607 -0.00639832 26.4671 -0.00639832 26.4714C-0.00639832 26.4778 -0.00639832 26.4842 -0.00639832 26.4885C-0.00639832 26.4949 -0.00639832 26.5013 -0.00639832 26.5056C-0.00639832 26.512 -0.00639832 26.5184 -0.00639832 26.5227C-0.00639832 26.5291 -0.00639832 26.5355 -0.00639832 26.5398C-0.00639832 26.5462 -0.00639832 26.5526 -0.00639832 26.5569C-0.00639832 26.5633 -0.00639832 26.5697 -0.00639832 26.574C-0.00639832 26.5804 -0.00639832 26.5868 -0.00639832 26.5911C-0.00639832 26.5975 -0.00639832 26.604 -0.00639832 26.6082C-0.00639832 26.6146 -0.00639832 26.6211 -0.00639832 26.6253C-0.00639832 26.6318 -0.00639832 26.6382 -0.00639832 26.6425C-0.00639832 26.6489 -0.00639832 26.6553 -0.00639832 26.6596C-0.00639832 26.666 -0.00639832 26.6724 -0.00639832 26.6767C-0.00639832 26.6831 -0.00639832 26.6895 -0.00639832 26.6938C-0.00639832 26.7002 -0.00639832 26.7066 -0.00639832 26.7109C-0.00639832 26.7173 -0.00639832 26.7237 -0.00639832 26.728C-0.00639832 26.7344 -0.00639832 26.7408 -0.00639832 26.7451C-0.00639832 26.7515 -0.00639832 26.7579 -0.00639832 26.7622C-0.00639832 26.7686 -0.00639832 26.7751 -0.00639832 26.7793C-0.00639832 26.7857 -0.00639832 26.7922 -0.00639832 26.7964C-0.00639832 26.8029 -0.00639832 26.8093 -0.00639832 26.8136C-0.00639832 26.82 -0.00639832 26.8264 -0.00639832 26.8307C-0.00639832 26.8371 -0.00639832 26.8435 -0.00639832 26.8478C-0.00639832 26.8542 -0.00639832 26.8606 -0.00639832 26.8649C-0.00639832 26.8713 -0.00639832 26.8777 -0.00639832 26.882C-0.00639832 26.8884 -0.00639832 26.8948 -0.00639832 26.8991C-0.00639832 26.9055 -0.00639832 26.9119 -0.00639832 26.9162C-0.00639832 26.9226 -0.00639832 26.929 -0.00639832 26.9333C-0.00639832 26.9397 -0.00639832 26.9462 -0.00639832 26.9504C-0.00639832 26.9569 -0.00639832 26.9633 -0.00639832 26.9675C-0.00639832 26.974 -0.00639832 26.9804 -0.00639832 26.9847C-0.00639832 26.9911 -0.00639832 26.9975 -0.00639832 27.0018C-0.00639832 27.0082 -0.00639832 27.0146 -0.00639832 27.0189C-0.00639832 27.0253 -0.00639832 27.0317 -0.00639832 27.036C-0.00639832 27.0424 -0.00639832 27.0488 -0.00639832 27.0531C-0.00639832 27.0595 -0.00639832 27.0659 -0.00639832 27.0702C-0.00639832 27.0766 -0.00639832 27.083 -0.00639832 27.0873C-0.00639832 27.0937 -0.00639832 27.1001 -0.00639832 27.1044C-0.00639832 27.1108 -0.00639832 27.1173 -0.00639832 27.1215C-0.00639832 27.1279 -0.00639832 27.1344 -0.00639832 27.1386C-0.00639832 27.1451 -0.00639832 27.1515 -0.00639832 27.1558C-0.00639832 27.1622 -0.00639832 27.1686 -0.00639832 27.1729C-0.00639832 27.1793 -0.00639832 27.1857 -0.00639832 27.19C-0.00639832 27.1964 -0.00639832 27.2028 -0.00639832 27.2071C-0.00639832 27.2135 -0.00639832 27.2199 -0.00639832 27.2242C-0.00639832 27.2306 -0.00639832 27.237 -0.00639832 27.2413C-0.00639832 27.2477 -0.00639832 27.2541 -0.00639832 27.2584C-0.00639832 27.2648 -0.00639832 27.2712 -0.00639832 27.2755C-0.00639832 27.2819 -0.00639832 27.2884 -0.00639832 27.2926C-0.00639832 27.299 -0.00639832 27.3055 -0.00639832 27.3097C-0.00639832 27.3162 -0.00639832 27.3226 -0.00639832 27.3269C-0.00639832 27.3333 -0.00639832 27.3397 -0.00639832 27.344C-0.00639832 27.3504 -0.00639832 27.3568 -0.00639832 27.3611C-0.00639832 27.3675 -0.00639832 27.3739 -0.00639832 27.3782C-0.00639832 27.3846 -0.00639832 27.391 -0.00639832 27.3953C-0.00639832 27.4017 -0.00639832 27.4081 -0.00639832 27.4124C-0.00639832 27.4188 -0.00639832 27.4252 -0.00639832 27.4295C-0.00639832 27.4359 -0.00639832 27.4423 -0.00639832 27.4466C-0.00639832 27.453 -0.00639832 27.4595 -0.00639832 27.4637C-0.00639832 27.4701 -0.00639832 27.4766 -0.00639832 27.4808C-0.00639832 27.4873 -0.00639832 27.4937 -0.00639832 27.498C-0.00639832 27.5044 -0.00639832 27.5108 -0.00639832 27.5151C-0.00639832 27.5215 -0.00639832 27.5279 -0.00639832 27.5322C-0.00639832 27.5386 -0.00639832 27.545 -0.00639832 27.5493C-0.00639832 27.5557 -0.00639832 27.5621 -0.00639832 27.5664C-0.00639832 27.5728 -0.00639832 27.5792 -0.00639832 27.5835C-0.00639832 27.5899 -0.00639832 27.5963 -0.00639832 27.6006C-0.00639832 27.607 -0.00639832 27.6134 -0.00639832 27.6177C-0.00639832 27.6241 -0.00639832 27.6306 -0.00639832 27.6348C-0.00639832 27.6412 -0.00639832 27.6477 -0.00639832 27.6519C-0.00639832 27.6584 -0.00639832 27.6648 -0.00639832 27.6691C-0.00639832 27.6755 -0.00639832 27.6819 -0.00639832 27.6862C-0.00639832 27.6926 -0.00639832 27.699 -0.00639832 27.7033C-0.00639832 27.7097 -0.00639832 27.7161 -0.00639832 27.7204C-0.00639832 27.7268 -0.00639832 27.7332 -0.00639832 27.7375C-0.00639832 27.7439 -0.00639832 27.7503 -0.00639832 27.7546C-0.00639832 27.761 -0.00639832 27.7674 -0.00639832 27.7717C-0.00639832 27.7781 -0.00639832 27.7845 -0.00639832 27.7888C-0.00639832 27.7952 -0.00639832 27.8017 -0.00639832 27.8059C-0.00639832 27.8123 -0.00639832 27.8188 -0.00639832 27.823C-0.00639832 27.8295 -0.00639832 27.8359 -0.00639832 27.8402C-0.00639832 27.8466 -0.00639832 27.853 -0.00639832 27.8573C-0.00639832 27.8637 -0.00639832 27.8701 -0.00639832 27.8744C-0.00639832 27.8808 -0.00639832 27.8872 -0.00639832 27.8915C-0.00639832 27.8979 -0.00639832 27.9043 -0.00639832 27.9086C-0.00639832 27.915 -0.00639832 27.9214 -0.00639832 27.9257C-0.00639832 27.9321 -0.00639832 27.9385 -0.00639832 27.9428C-0.00639832 27.9492 -0.00639832 27.9556 -0.00639832 27.9599C-0.00639832 27.9663 -0.00639832 27.9728 -0.00639832 27.977C-0.00639832 27.9834 -0.00639832 27.9899 -0.00639832 27.9941C-0.00639832 28.0006 -0.00639832 28.007 -0.00639832 28.0113C-0.00639832 28.0177 -0.00639832 28.0241 -0.00639832 28.0284C-0.00639832 28.0348 -0.00639832 28.0412 -0.00639832 28.0455C-0.00639832 28.0519 -0.00639832 28.0583 -0.00639832 28.0626C-0.00639832 28.069 -0.00639832 28.0754 -0.00639832 28.0797C-0.00639832 28.0861 -0.00639832 28.0925 -0.00639832 28.0968C-0.00639832 28.1032 -0.00639832 28.1096 -0.00639832 28.1139C-0.00639832 28.1203 -0.00639832 28.1267 -0.00639832 28.131C-0.00639832 28.1374 -0.00639832 28.1439 -0.00639832 28.1481C-0.00639832 28.1545 -0.00639832 28.161 -0.00639832 28.1652C-0.00639832 28.1717 -0.00639832 28.1781 -0.00639832 28.1824C-0.00639832 28.1888 -0.00639832 28.1952 -0.00639832 28.1995C-0.00639832 28.2059 -0.00639832 28.2123 -0.00639832 28.2166C-0.00639832 28.223 -0.00639832 28.2294 -0.00639832 28.2337C-0.00639832 28.2401 -0.00639832 28.2465 -0.00639832 28.2508C-0.00639832 28.2572 -0.00639832 28.2636 -0.00639832 28.2679C-0.00639832 28.2743 -0.00639832 28.2807 -0.00639832 28.285C-0.00639832 28.2914 -0.00639832 28.2978 -0.00639832 28.3021C-0.00639832 28.3085 -0.00639832 28.315 -0.00639832 28.3192C-0.00639832 28.3256 -0.00639832 28.3321 -0.00639832 28.3363C-0.00639832 28.3428 -0.00639832 28.3492 -0.00639832 28.3535C-0.00639832 28.3599 -0.00639832 28.3663 -0.00639832 28.3706C-0.00639832 28.377 -0.00639832 28.3834 -0.00639832 28.3877C-0.00639832 28.3941 -0.00639832 28.4005 -0.00639832 28.4048C-0.00639832 28.4112 -0.00639832 28.4176 -0.00639832 28.4219C-0.00639832 28.4283 -0.00639832 28.4347 -0.00639832 28.439C-0.00639832 28.4454 -0.00639832 28.4518 -0.00639832 28.4561C-0.00639832 28.4625 -0.00639832 28.4689 -0.00639832 28.4732C-0.00639832 28.4796 -0.00639832 28.4861 -0.00639832 28.4903C-0.00639832 28.4967 -0.00639832 28.5032 -0.00639832 28.5074C-0.00639832 28.5139 -0.00639832 28.5203 -0.00639832 28.5246C-0.00639832 28.531 -0.00639832 28.5374 -0.00639832 28.5417C-0.00639832 28.5481 -0.00639832 28.5545 -0.00639832 28.5588C-0.00639832 28.5652 -0.00639832 28.5716 -0.00639832 28.5759C-0.00639832 28.5823 -0.00639832 28.5887 -0.00639832 28.593C-0.00639832 28.5994 -0.00639832 28.6058 -0.00639832 28.6101C-0.00639832 28.6165 -0.00639832 28.6229 -0.00639832 28.6272C-0.00639832 28.6336 -0.00639832 28.64 -0.00639832 28.6443C-0.00639832 28.6507 -0.00639832 28.6572 -0.00639832 28.6614C-0.00639832 28.6678 -0.00639832 28.6743 -0.00639832 28.6785C-0.00639832 28.685 -0.00639832 28.6914 -0.00639832 28.6957C-0.00639832 28.7021 -0.00639832 28.7085 -0.00639832 28.7128C-0.00639832 28.7192 -0.00639832 28.7256 -0.00639832 28.7299C-0.00639832 28.7363 -0.00639832 28.7427 -0.00639832 28.747C-0.00639832 28.7534 -0.00639832 28.7598 -0.00639832 28.7641C-0.00639832 28.7705 -0.00639832 28.7769 -0.00639832 28.7812C-0.00639832 28.7876 -0.00639832 28.794 -0.00639832 28.7983C-0.00639832 28.8047 -0.00639832 28.8111 -0.00639832 28.8154C-0.00639832 28.8218 -0.00639832 28.8283 -0.00639832 28.8325C-0.00639832 28.8389 -0.00639832 28.8454 -0.00639832 28.8496C-0.00639832 28.8561 -0.00639832 28.8625 -0.00639832 28.8668C-0.00639832 28.8732 -0.00639832 28.8796 -0.00639832 28.8839C-0.00639832 28.8903 -0.00639832 28.8967 -0.00639832 28.901C-0.00639832 28.9074 -0.00639832 28.9138 -0.00639832 28.9181C-0.00639832 28.9245 -0.00639832 28.9309 -0.00639832 28.9352C-0.00639832 28.9416 -0.00639832 28.948 -0.00639832 28.9523C-0.00639832 28.9587 -0.00639832 28.9651 -0.00639832 28.9694C-0.00639832 28.9758 -0.00639832 28.9822 -0.00639832 28.9865C-0.00639832 28.9929 -0.00639832 28.9994 -0.00639832 29.0036C-0.00639832 29.01 -0.00639832 29.0165 -0.00639832 29.0207C-0.00639832 29.0272 -0.00639832 29.0336 -0.00639832 29.0379C-0.00639832 29.0443 -0.00639832 29.0507 -0.00639832 29.055C-0.00639832 29.0614 -0.00639832 29.0678 -0.00639832 29.0721C-0.00639832 29.0785 -0.00639832 29.0849 -0.00639832 29.0892C-0.00639832 29.0956 -0.00639832 29.102 -0.00639832 29.1063C-0.00639832 29.1127 -0.00639832 29.1191 -0.00639832 29.1234C-0.00639832 29.1298 -0.00639832 29.1362 -0.00639832 29.1405C-0.00639832 29.1469 -0.00639832 29.1533 -0.00639832 29.1576C-0.00639832 29.164 -0.00639832 29.1705 -0.00639832 29.1747C-0.00639832 29.1812 -0.00639832 29.1876 -0.00639832 29.1918C-0.00639832 29.1983 -0.00639832 29.2047 -0.00639832 29.209C-0.00639832 29.2154 -0.00639832 29.2218 -0.00639832 29.2261C-0.00639832 29.2325 -0.00639832 29.2389 -0.00639832 29.2432C-0.00639832 29.2496 -0.00639832 29.256 -0.00639832 29.2603C-0.00639832 29.2667 -0.00639832 29.2731 -0.00639832 29.2774C-0.00639832 29.2838 -0.00639832 29.2902 -0.00639832 29.2945C-0.00639832 29.3009 -0.00639832 29.3073 -0.00639832 29.3116C-0.00639832 29.318 -0.00639832 29.3244 -0.00639832 29.3287C-0.00639832 29.3351 -0.00639832 29.3416 -0.00639832 29.3458C-0.00639832 29.3523 -0.00639832 29.3587 -0.00639832 29.3629C-0.00639832 29.3694 -0.00639832 29.3758 -0.00639832 29.3801C-0.0171076 29.8741 0.259191 30.351 0.732541 30.5735C0.861052 30.6334 3.94103 32.0471 8.95939 32.0471C8.97439 32.0471 8.99152 32.0471 9.00651 32.0471L7.87347 42.6125C7.86919 42.6617 7.86705 42.713 7.86705 42.7622C7.86705 42.7686 7.86705 42.7751 7.86705 42.7793C7.86705 42.7857 7.86705 42.7922 7.86705 42.7964C7.86705 42.8029 7.86705 42.8093 7.86705 42.8135C7.86705 42.82 7.86705 42.8264 7.86705 42.8307C7.86705 42.8371 7.86705 42.8435 7.86705 42.8478C7.86705 42.8542 7.86705 42.8606 7.86705 42.8649C7.86705 42.8713 7.86705 42.8777 7.86705 42.882C7.86705 42.8884 7.86705 42.8948 7.86705 42.8991C7.86705 42.9055 7.86705 42.9119 7.86705 42.9162C7.86705 42.9226 7.86705 42.929 7.86705 42.9333C7.86705 42.9397 7.86705 42.9462 7.86705 42.9504C7.86705 42.9568 7.86705 42.9633 7.86705 42.9675C7.86705 42.974 7.86705 42.9804 7.86705 42.9846C7.86705 42.9911 7.86705 42.9975 7.86705 43.0018C7.86705 43.0082 7.86705 43.0146 7.86705 43.0189C7.86705 43.0253 7.86705 43.0317 7.86705 43.036C7.86705 43.0424 7.86705 43.0488 7.86705 43.0531C7.86705 43.0595 7.86705 43.0659 7.86705 43.0702C7.86705 43.0766 7.86705 43.083 7.86705 43.0873C7.86705 43.0937 7.86705 43.1001 7.86705 43.1044C7.86705 43.1108 7.86705 43.1173 7.86705 43.1215C7.86705 43.1279 7.86705 43.1344 7.86705 43.1386C7.86705 43.1451 7.86705 43.1515 7.86705 43.1558C7.86705 43.1622 7.86705 43.1686 7.86705 43.1729C7.86705 43.1793 7.86705 43.1857 7.86705 43.19C7.86705 43.1964 7.86705 43.2028 7.86705 43.2071C7.86705 43.2135 7.86705 43.2199 7.86705 43.2242C7.86705 43.2306 7.86705 43.237 7.86705 43.2413C7.86705 43.2477 7.86705 43.2541 7.86705 43.2584C7.86705 43.2648 7.86705 43.2712 7.86705 43.2755C7.86705 43.2819 7.86705 43.2884 7.86705 43.2926C7.86705 43.299 7.86705 43.3055 7.86705 43.3097C7.86705 43.3162 7.86705 43.3226 7.86705 43.3269C7.86705 43.3333 7.86705 43.3397 7.86705 43.344C7.86705 43.3504 7.86705 43.3568 7.86705 43.3611C7.86705 43.3675 7.86705 43.3739 7.86705 43.3782C7.86705 43.3846 7.86705 43.391 7.86705 43.3953C7.86705 43.4017 7.86705 43.4081 7.86705 43.4124C7.86705 43.4188 7.86705 43.4252 7.86705 43.4295C7.86705 43.4359 7.86705 43.4423 7.86705 43.4466C7.86705 43.453 7.86705 43.4595 7.86705 43.4637C7.86705 43.4701 7.86705 43.4766 7.86705 43.4808C7.86705 43.4873 7.86705 43.4937 7.86705 43.498C7.86705 43.5044 7.86705 43.5108 7.86705 43.5151C7.86705 43.5215 7.86705 43.5279 7.86705 43.5322C7.86705 43.5386 7.86705 43.545 7.86705 43.5493C7.86705 43.5557 7.86705 43.5621 7.86705 43.5664C7.86705 43.5728 7.86705 43.5792 7.86705 43.5835C7.86705 43.5899 7.86705 43.5963 7.86705 43.6006C7.86705 43.607 7.86705 43.6134 7.86705 43.6177C7.86705 43.6241 7.86705 43.6306 7.86705 43.6348C7.86705 43.6413 7.86705 43.6477 7.86705 43.6519C7.86705 43.6584 7.86705 43.6648 7.86705 43.6691C7.86705 43.6755 7.86705 43.6819 7.86705 43.6862C7.86705 43.6926 7.86705 43.699 7.86705 43.7033C7.86705 43.7097 7.86705 43.7161 7.86705 43.7204C7.86705 43.7268 7.86705 43.7332 7.86705 43.7375C7.86705 43.7439 7.86705 43.7503 7.86705 43.7546C7.86705 43.761 7.86705 43.7674 7.86705 43.7717C7.86705 43.7781 7.86705 43.7845 7.86705 43.7888C7.86705 43.7952 7.86705 43.8017 7.86705 43.8059C7.86705 43.8124 7.86705 43.8188 7.86705 43.823C7.86705 43.8295 7.86705 43.8359 7.86705 43.8402C7.86705 43.8466 7.86705 43.853 7.86705 43.8573C7.86705 43.8637 7.86705 43.8701 7.86705 43.8744C7.86705 43.8808 7.86705 43.8872 7.86705 43.8915C7.86705 43.8979 7.86705 43.9043 7.86705 43.9086C7.86705 43.915 7.86705 43.9214 7.86705 43.9257C7.86705 43.9321 7.86705 43.9385 7.86705 43.9428C7.86705 43.9492 7.86705 43.9556 7.86705 43.9599C7.86705 43.9663 7.86705 43.9728 7.86705 43.977C7.86705 43.9834 7.86705 43.9899 7.86705 43.9941C7.86705 44.0006 7.86705 44.007 7.86705 44.0113C7.86705 44.0177 7.86705 44.0241 7.86705 44.0284C7.86705 44.0348 7.86705 44.0412 7.86705 44.0455C7.86705 44.0519 7.86705 44.0583 7.86705 44.0626C7.86705 44.069 7.86705 44.0754 7.86705 44.0797C7.86705 44.0861 7.86705 44.0925 7.86705 44.0968C7.86705 44.1032 7.86705 44.1096 7.86705 44.1139C7.86705 44.1203 7.86705 44.1267 7.86705 44.131C7.86705 44.1374 7.86705 44.1439 7.86705 44.1481C7.86705 44.1545 7.86705 44.161 7.86705 44.1652C7.86705 44.1717 7.86705 44.1781 7.86705 44.1824C7.86705 44.1888 7.86705 44.1952 7.86705 44.1995C7.86705 44.2059 7.86705 44.2123 7.86705 44.2166C7.86705 44.223 7.86705 44.2294 7.86705 44.2337C7.86705 44.2401 7.86705 44.2465 7.86705 44.2508C7.86705 44.2572 7.86705 44.2636 7.86705 44.2679C7.86705 44.2743 7.86705 44.2807 7.86705 44.285C7.86705 44.2914 7.86705 44.2978 7.86705 44.3021C7.86705 44.3085 7.86705 44.315 7.86705 44.3192C7.86705 44.3256 7.86705 44.3321 7.86705 44.3363C7.86705 44.3428 7.86705 44.3492 7.86705 44.3535C7.86705 44.3599 7.86705 44.3663 7.86705 44.3706C7.86705 44.377 7.86705 44.3834 7.86705 44.3877C7.86705 44.3941 7.86705 44.4005 7.86705 44.4048C7.86705 44.4112 7.86705 44.4176 7.86705 44.4219C7.86705 44.4283 7.86705 44.4347 7.86705 44.439C7.86705 44.4454 7.86705 44.4518 7.86705 44.4561C7.86705 44.4625 7.86705 44.4689 7.86705 44.4732C7.86705 44.4796 7.86705 44.4861 7.86705 44.4903C7.86705 44.4967 7.86705 44.5032 7.86705 44.5074C7.86705 44.5139 7.86705 44.5203 7.86705 44.5246C7.86705 44.531 7.86705 44.5374 7.86705 44.5417C7.86705 44.5481 7.86705 44.5545 7.86705 44.5588C7.86705 44.5652 7.86705 44.5716 7.86705 44.5759C7.86705 44.5823 7.86705 44.5887 7.86705 44.593C7.86705 44.5994 7.86705 44.6058 7.86705 44.6101C7.86705 44.6165 7.86705 44.6229 7.86705 44.6272C7.86705 44.6336 7.86705 44.64 7.86705 44.6443C7.86705 44.6507 7.86705 44.6572 7.86705 44.6614C7.86705 44.6679 7.86705 44.6743 7.86705 44.6785C7.86705 44.685 7.86705 44.6914 7.86705 44.6957C7.86705 44.7021 7.86705 44.7085 7.86705 44.7128C7.86705 44.7192 7.86705 44.7256 7.86705 44.7299C7.86705 44.7363 7.86705 44.7427 7.86705 44.747C7.86705 44.7534 7.86705 44.7598 7.86705 44.7641C7.86705 44.7705 7.86705 44.7769 7.86705 44.7812C7.86705 44.7876 7.86705 44.794 7.86705 44.7983C7.86705 44.8047 7.86705 44.8111 7.86705 44.8154C7.86705 44.8218 7.86705 44.8283 7.86705 44.8325C7.86705 44.8389 7.86705 44.8454 7.86705 44.8496C7.86705 44.8561 7.86705 44.8625 7.86705 44.8668C7.86705 44.8732 7.86705 44.8796 7.86705 44.8839C7.86705 44.8903 7.86705 44.8967 7.86705 44.901C7.86705 44.9074 7.86705 44.9138 7.86705 44.9181C7.86705 44.9245 7.86705 44.9309 7.86705 44.9352C7.86705 44.9416 7.86705 44.948 7.86705 44.9523C7.86705 44.9587 7.86705 44.9651 7.86705 44.9694C7.86705 44.9758 7.86705 44.9822 7.86705 44.9865C7.86705 44.9929 7.86705 44.9994 7.86705 45.0036C7.86705 45.01 7.86705 45.0165 7.86705 45.0207C7.86705 45.0272 7.86705 45.0336 7.86705 45.0379C7.86705 45.0443 7.86705 45.0507 7.86705 45.055C7.86705 45.0614 7.86705 45.0678 7.86705 45.0721C7.86705 45.0785 7.86705 45.0849 7.86705 45.0892C7.86705 45.0956 7.86705 45.102 7.86705 45.1063C7.86705 45.1127 7.86705 45.1191 7.86705 45.1234C7.86705 45.1298 7.86705 45.1362 7.86705 45.1405C7.86705 45.1469 7.86705 45.1533 7.86705 45.1576C7.86705 45.164 7.86705 45.1705 7.86705 45.1747C7.86705 45.1811 7.86705 45.1876 7.86705 45.1918C7.86705 45.1983 7.86705 45.2047 7.86705 45.209C7.86705 45.2154 7.86705 45.2218 7.86705 45.2261C7.86705 45.2325 7.86705 45.2389 7.86705 45.2432C7.86705 45.2496 7.86705 45.256 7.86705 45.2603C7.86705 45.2667 7.86705 45.2731 7.86705 45.2774C7.86705 45.2838 7.86705 45.2902 7.86705 45.2945C7.86705 45.3009 7.86705 45.3073 7.86705 45.3116C7.86705 45.318 7.86705 45.3244 7.86705 45.3287C7.86705 45.3351 7.86705 45.3416 7.86705 45.3458C7.86705 45.3522 7.86705 45.3587 7.86705 45.3629C7.86705 45.3694 7.86705 45.3758 7.86705 45.3801C7.86705 45.3865 7.86705 45.3929 7.86705 45.3972C7.86705 45.4036 7.86705 45.41 7.86705 45.4143C7.86705 45.4207 7.86705 45.4271 7.86705 45.4314C7.86705 45.4378 7.86705 45.4442 7.86705 45.4485C7.86705 45.4549 7.86705 45.4613 7.86705 45.4656C7.86705 45.472 7.86705 45.4784 7.86705 45.4827C7.86705 45.4891 7.86705 45.4955 7.86705 45.4998C7.86705 45.5062 7.86705 45.5127 7.86705 45.5169C7.86705 45.5234 7.86705 45.5298 7.86705 45.534C7.86705 45.5405 7.86705 45.5469 7.86705 45.5512C7.86705 45.5576 7.86705 45.564 7.86705 45.5683C7.86705 45.5747 7.86705 45.5811 7.86705 45.5854C7.86705 45.5918 7.86705 45.5982 7.86705 45.6025C7.86705 45.6089 7.86705 45.6153 7.86705 45.6196C7.86705 45.626 7.86705 45.6324 7.86705 45.6367C7.86705 45.6431 7.86705 45.6495 7.86705 45.6538C7.86705 45.6602 7.86705 45.6666 7.86705 45.6709C7.86705 45.6773 7.86705 45.6838 7.86705 45.688C7.86705 45.6945 7.86705 45.7009 7.86705 45.7051C7.86705 45.7116 7.86705 45.718 7.86705 45.7223C7.86705 45.7287 7.86705 45.7351 7.86705 45.7394C7.86705 45.7458 7.86705 45.7522 7.86705 45.7565C7.86705 45.7629 7.86705 45.7693 7.86705 45.7736C7.86705 45.78 7.86705 45.7864 7.86705 45.7907C7.86705 45.7971 7.86705 45.8035 7.86705 45.8078C7.86705 45.8142 7.86705 45.8206 7.86705 45.8249C7.86705 45.8313 7.86705 45.8377 7.86705 45.842C7.86705 45.8484 7.86705 45.8549 7.86705 45.8591C7.86705 45.8656 7.86705 45.872 7.86705 45.8762C7.86705 45.8827 7.86705 45.8891 7.86705 45.8934C7.86705 45.8998 7.86705 45.9062 7.86705 45.9105C7.86705 45.9169 7.86705 45.9233 7.86705 45.9276C7.86705 45.934 7.86705 45.9404 7.86705 45.9447C7.86705 45.9511 7.86705 45.9575 7.86705 45.9618C7.86705 45.9682 7.86705 45.9746 7.86705 45.9789C7.86705 45.9853 7.86705 45.9917 7.86705 45.996C7.86705 46.0024 7.86705 46.0088 7.86705 46.0131C7.86705 46.0195 7.86705 46.026 7.86705 46.0302C7.86705 46.0367 7.86705 46.0431 7.86705 46.0473C7.86705 46.0538 7.86705 46.0602 7.86705 46.0645C7.86705 46.0709 7.86705 46.0773 7.86705 46.0816C7.86705 46.088 7.86705 46.0944 7.86705 46.0987C7.86705 46.1051 7.86705 46.1115 7.86705 46.1158C7.86705 46.1222 7.86705 46.1286 7.86705 46.1329C7.86705 46.1393 7.86705 46.1457 7.86705 46.15C7.86705 46.1564 7.86705 46.1628 7.86705 46.1671C7.86705 46.1735 7.86705 46.1799 7.86705 46.1842C7.86705 46.5136 7.99128 46.8344 8.2226 47.0761C8.46677 47.3306 8.80304 47.4739 9.15216 47.4739C9.17786 47.4739 9.20356 47.4739 9.22927 47.4718H9.52913L30.9305 46.165C31.2796 46.0816 31.5838 45.8549 31.7594 45.534L32.6804 43.8487L37.6559 43.5536L38.1121 44.8347C38.2942 45.348 38.7825 45.688 39.3223 45.688C39.348 45.688 39.3737 45.688 39.3994 45.6859L44.5141 45.3843C44.6019 45.3801 44.6855 45.3651 44.769 45.3437C44.829 45.3522 44.889 45.3565 44.9511 45.3565C44.9768 45.3565 45.0025 45.3565 45.026 45.3544L50.1408 45.0528C50.7683 45.0165 51.276 44.531 51.3424 43.9086L51.6615 40.9379L52.4026 40.8951L54.6258 44.161C54.8657 44.5139 55.2641 44.7235 55.6882 44.7235C55.7139 44.7235 55.7396 44.7235 55.7653 44.7213L61.3855 44.3898C61.3855 44.3898 61.3855 44.3898 61.3876 44.3898L66.5024 44.0861C66.9436 44.0604 67.342 43.8081 67.554 43.421L68.4772 41.7335L73.4505 41.4383L73.9089 42.7216C74.0931 43.2349 74.5793 43.5728 75.119 43.5728C75.1448 43.5728 75.1704 43.5728 75.1962 43.5707L80.3109 43.267C80.7136 43.2434 81.0841 43.0317 81.3069 42.6938C81.4482 42.4799 81.521 42.234 81.5189 41.9837C81.5189 41.9773 81.5189 41.9709 81.5189 41.9666C81.5189 41.9602 81.5189 41.9538 81.5189 41.9495C81.5189 41.9431 81.5189 41.9367 81.5189 41.9324C81.5189 41.926 81.5189 41.9196 81.5189 41.9153C81.5189 41.9089 81.5189 41.9024 81.5189 41.8982C81.5189 41.8918 81.5189 41.8853 81.5189 41.8811C81.5189 41.8746 81.5189 41.8682 81.5189 41.8639C81.5189 41.8575 81.5189 41.8511 81.5189 41.8468C81.5189 41.8404 81.5189 41.834 81.5189 41.8297C81.5189 41.8233 81.5189 41.8169 81.5189 41.8126C81.5189 41.8062 81.5189 41.7998 81.5189 41.7955C81.5189 41.7891 81.5189 41.7827 81.5189 41.7784C81.5189 41.772 81.5189 41.7656 81.5189 41.7613C81.5189 41.7549 81.5189 41.7485 81.5189 41.7442C81.5189 41.7378 81.5189 41.7313 81.5189 41.7271C81.5189 41.7206 81.5189 41.7142 81.5189 41.71C81.5189 41.7035 81.5189 41.6971 81.5189 41.6928C81.5189 41.6864 81.5189 41.68 81.5189 41.6757C81.5189 41.6693 81.5189 41.6629 81.5189 41.6586C81.5189 41.6522 81.5189 41.6458 81.5189 41.6415C81.5189 41.6351 81.5189 41.6287 81.5189 41.6244C81.5189 41.618 81.5189 41.6116 81.5189 41.6073C81.5189 41.6009 81.5189 41.5945 81.5189 41.5902C81.5189 41.5838 81.5189 41.5774 81.5189 41.5731C81.5189 41.5667 81.5189 41.5602 81.5189 41.556C81.5189 41.5495 81.5189 41.5431 81.5189 41.5389C81.5189 41.5324 81.5189 41.526 81.5189 41.5217C81.5189 41.5153 81.5189 41.5089 81.5189 41.5046C81.5189 41.4982 81.5189 41.4918 81.5189 41.4875C81.5189 41.4811 81.5189 41.4747 81.5189 41.4704C81.5189 41.464 81.5189 41.4576 81.5189 41.4533C81.5189 41.4469 81.5189 41.4405 81.5189 41.4362C81.5189 41.4298 81.5189 41.4234 81.5189 41.4191C81.5189 41.4127 81.5189 41.4063 81.5189 41.402C81.5189 41.3956 81.5189 41.3891 81.5189 41.3849C81.5189 41.3784 81.5189 41.372 81.5189 41.3678C81.5189 41.3613 81.5189 41.3549 81.5189 41.3506C81.5189 41.3442 81.5189 41.3378 81.5189 41.3335C81.5189 41.3271 81.5189 41.3207 81.5189 41.3164C81.5189 41.31 81.5189 41.3036 81.5189 41.2993C81.5189 41.2929 81.5189 41.2865 81.5189 41.2822C81.5189 41.2758 81.5189 41.2694 81.5189 41.2651C81.5189 41.2587 81.5189 41.2523 81.5189 41.248C81.5189 41.2416 81.5189 41.2352 81.5189 41.2309C81.5189 41.2245 81.5189 41.218 81.5189 41.2138C81.5189 41.2073 81.5189 41.2009 81.5189 41.1967C81.5189 41.1902 81.5189 41.1838 81.5189 41.1795C81.5189 41.1774 81.5189 41.1753 81.5189 41.1731C82.5598 41.9709 84.0056 42.4927 85.7983 42.681C86.3059 42.7344 86.8414 42.7622 87.3897 42.7622C89.6301 42.7622 92.1232 42.3216 94.6013 41.4854C100.806 39.3937 104.931 35.5568 104.996 32.0856C104.996 32.0792 104.996 32.0727 104.996 32.0685C104.996 32.062 104.996 32.0556 104.996 32.0514C104.996 32.0449 104.996 32.0385 104.996 32.0342C104.996 32.0278 104.996 32.0214 104.996 32.0171C104.996 32.0107 104.996 32.0043 104.996 32C104.996 31.9936 104.996 31.9872 104.996 31.9829C104.996 31.9765 104.996 31.9701 104.996 31.9658C104.996 31.9594 104.996 31.953 104.996 31.9487C104.996 31.9423 104.996 31.9359 104.996 31.9316C104.996 31.9252 104.996 31.9188 104.996 31.9145C104.996 31.9081 104.996 31.9016 104.996 31.8974C104.996 31.8909 104.996 31.8845 104.996 31.8803C104.996 31.8738 104.996 31.8674 104.996 31.8631C104.996 31.8567 104.996 31.8503 104.996 31.846C104.996 31.8396 104.996 31.8332 104.996 31.8289C104.996 31.8225 104.996 31.8161 104.996 31.8118C104.996 31.8054 104.996 31.799 104.996 31.7947C104.996 31.7883 104.996 31.7819 104.996 31.7776C104.996 31.7712 104.996 31.7648 104.996 31.7605C104.996 31.7541 104.996 31.7477 104.996 31.7434C104.996 31.737 104.996 31.7305 104.996 31.7263C104.996 31.7198 104.996 31.7134 104.996 31.7092C104.996 31.7027 104.996 31.6963 104.996 31.692C104.996 31.6856 104.996 31.6792 104.996 31.6749C104.996 31.6685 104.996 31.6621 104.996 31.6578C104.996 31.6514 104.996 31.645 104.996 31.6407C104.996 31.6343 104.996 31.6279 104.996 31.6236C104.996 31.6172 104.996 31.6108 104.996 31.6065C104.996 31.6001 104.996 31.5937 104.996 31.5894C104.996 31.583 104.996 31.5765 104.996 31.5723C104.996 31.5659 104.996 31.5594 104.996 31.5552C104.996 31.5487 104.996 31.5423 104.996 31.5381C104.996 31.5316 104.996 31.5252 104.996 31.5209C104.996 31.5145 104.996 31.5081 104.996 31.5038C104.996 31.4974 104.996 31.491 104.996 31.4867C104.996 31.4803 104.996 31.4739 104.996 31.4696C104.996 31.4632 104.996 31.4568 104.996 31.4525C104.996 31.4461 104.996 31.4397 104.996 31.4354C104.996 31.429 104.996 31.4226 104.996 31.4183C104.996 31.4119 104.996 31.4055 104.996 31.4012C104.996 31.3948 104.996 31.3883 104.996 31.3841C104.996 31.3776 104.996 31.3712 104.996 31.367C104.996 31.3605 104.996 31.3541 104.996 31.3498C104.996 31.3434 104.996 31.337 104.996 31.3327C104.996 31.3263 104.996 31.3199 104.996 31.3156C104.996 31.3092 104.996 31.3028 104.996 31.2985C104.996 31.2921 104.996 31.2857 104.996 31.2814C104.996 31.275 104.996 31.2686 104.996 31.2643C104.996 31.2579 104.996 31.2515 104.996 31.2472C104.996 31.2408 104.996 31.2344 104.996 31.2301C104.996 31.2237 104.996 31.2172 104.996 31.213C104.996 31.2065 104.996 31.2001 104.996 31.1959C104.996 31.1894 104.996 31.183 104.996 31.1787C104.996 31.1723 104.996 31.1659 104.996 31.1616C104.996 31.1552 104.996 31.1488 104.996 31.1445C104.996 31.1381 104.996 31.1317 104.996 31.1274C104.996 31.121 104.996 31.1146 104.996 31.1103C104.996 31.1039 104.996 31.0975 104.996 31.0932C104.996 31.0868 104.996 31.0804 104.996 31.0761C104.996 31.0697 104.996 31.0633 104.996 31.059C104.996 31.0526 104.996 31.0461 104.996 31.0419C104.996 31.0354 104.996 31.029 104.996 31.0248C104.996 31.0183 104.996 31.0119 104.996 31.0076C104.996 31.0012 104.996 30.9948 104.996 30.9905C104.996 30.9841 104.996 30.9777 104.996 30.9734C104.996 30.967 104.996 30.9606 104.996 30.9563C104.996 30.9499 104.996 30.9435 104.996 30.9392C104.996 30.9328 104.996 30.9264 104.996 30.9221C104.996 30.9157 104.996 30.9093 104.996 30.905C104.996 30.8986 104.996 30.8922 104.996 30.8879C104.996 30.8815 104.996 30.875 104.996 30.8708C104.996 30.8643 104.996 30.8579 104.996 30.8537C104.996 30.8472 104.996 30.8408 104.996 30.8365C104.996 30.8301 104.996 30.8237 104.996 30.8194C104.996 30.813 104.996 30.8066 104.996 30.8023C104.996 30.7959 104.996 30.7895 104.996 30.7852C104.996 30.7788 104.996 30.7724 104.996 30.7681C104.996 30.7617 104.996 30.7553 104.996 30.751C104.996 30.7446 104.996 30.7382 104.996 30.7339C104.996 30.7275 104.996 30.721 104.996 30.7168C104.996 30.7104 104.996 30.7039 104.996 30.6997C104.996 30.6932 104.996 30.6868 104.996 30.6826C104.996 30.6761 104.996 30.6697 104.996 30.6654C104.996 30.659 104.996 30.6526 104.996 30.6483C104.996 30.6419 104.996 30.6355 104.996 30.6312C104.996 30.6248 104.996 30.6184 104.996 30.6141C104.996 30.6077 104.996 30.6013 104.996 30.597C104.996 30.5906 104.996 30.5842 104.996 30.5799C104.996 30.5735 104.996 30.5671 104.996 30.5628C104.996 30.5564 104.996 30.55 104.996 30.5457C104.996 30.5393 104.996 30.5328 104.996 30.5286C104.996 30.5221 104.996 30.5157 104.996 30.5115C104.996 30.505 104.996 30.4986 104.996 30.4943C104.996 30.4879 104.996 30.4815 104.996 30.4772C104.996 30.4708 104.996 30.4644 104.996 30.4601C104.996 30.4537 104.996 30.4473 104.996 30.443C104.996 30.4366 104.996 30.4302 104.996 30.4259C104.996 30.4195 104.996 30.4131 104.996 30.4088C104.996 30.4024 104.996 30.396 104.996 30.3917C104.996 30.3853 104.996 30.3789 104.996 30.3746C104.996 30.3682 104.996 30.3617 104.996 30.3575C104.996 30.351 104.996 30.3446 104.996 30.3404C104.996 30.3339 104.996 30.3275 104.996 30.3232C104.996 30.3168 104.996 30.3104 104.996 30.3061C104.996 30.2997 104.996 30.2933 104.996 30.289C104.996 30.2826 104.996 30.2762 104.996 30.2719C104.996 30.2655 104.996 30.2591 104.996 30.2548C104.996 30.2484 104.996 30.242 104.996 30.2377C104.996 30.2313 104.996 30.2249 104.996 30.2206C104.996 30.2142 104.996 30.2078 104.996 30.2035C104.996 30.1971 104.996 30.1906 104.996 30.1864C104.996 30.1799 104.996 30.1735 104.996 30.1693C104.996 30.1628 104.996 30.1564 104.996 30.1521C104.996 30.1457 104.996 30.1393 104.996 30.135C104.996 30.1286 104.996 30.1222 104.996 30.1179C104.996 30.1115 104.996 30.1051 104.996 30.1008C104.996 30.0944 104.996 30.088 104.996 30.0837C104.996 30.0773 104.996 30.0709 104.996 30.0666C104.996 30.0602 104.996 30.0538 104.996 30.0495C104.996 30.0431 104.996 30.0366 104.996 30.0324C104.996 30.026 104.996 30.0195 104.996 30.0153C104.996 30.0088 104.996 30.0024 104.996 29.9982C104.996 29.9917 104.996 29.9853 104.996 29.981C104.996 29.9746 104.996 29.9682 104.996 29.9639C104.996 29.9575 104.996 29.9511 104.996 29.9468C104.996 29.9404 104.996 29.934 104.996 29.9297C104.996 29.9233 104.996 29.9169 104.996 29.9126C104.996 29.9062 104.996 29.8998 104.996 29.8955C104.996 29.8891 104.996 29.8827 104.996 29.8784C104.996 29.872 104.996 29.8655 104.996 29.8613C104.996 29.8549 104.996 29.8484 104.996 29.8442C104.996 29.8377 104.996 29.8313 104.996 29.8271C104.996 29.8206 104.996 29.8142 104.996 29.8099C104.996 29.8035 104.996 29.7971 104.996 29.7928C104.996 29.7864 104.996 29.78 104.996 29.7757C104.996 29.7693 104.996 29.7629 104.996 29.7586C104.996 29.7522 104.996 29.7458 104.996 29.7415C104.996 29.7351 104.996 29.7287 104.996 29.7244C104.996 29.718 104.996 29.7116 104.996 29.7073C104.996 29.7009 104.996 29.6945 104.996 29.6902C104.996 29.6838 104.996 29.6773 104.996 29.6731C104.996 29.6666 104.996 29.6602 104.996 29.656C104.996 29.6495 104.996 29.6431 104.996 29.6388C104.996 29.6324 104.996 29.626 104.996 29.6217C104.996 29.6153 104.996 29.6089 104.996 29.6046C104.996 29.5982 104.996 29.5918 104.996 29.5875C104.996 29.5811 104.996 29.5747 104.996 29.5704C104.996 29.564 104.996 29.5576 104.996 29.5533C104.996 29.5469 104.996 29.5405 104.996 29.5362C104.996 29.5298 104.996 29.5233 104.996 29.5191C104.996 29.5127 104.996 29.5062 104.996 29.502C104.996 29.4955 104.996 29.4891 104.996 29.4849C104.996 29.4784 104.996 29.472 104.996 29.4677C104.996 29.4613 104.996 29.4549 104.996 29.4506C104.996 29.4442 104.996 29.4378 104.996 29.4335C104.996 29.4271 104.996 29.4207 104.996 29.4164C104.996 29.41 104.996 29.4036 104.996 29.3993C104.996 29.3929 104.996 29.3865 104.996 29.3822C104.996 29.3758 104.996 29.3694 104.996 29.3651C104.996 29.3587 104.996 29.3522 104.996 29.348C104.996 29.3416 104.996 29.3351 104.996 29.3309C104.996 29.3244 104.996 29.318 104.996 29.3138C104.996 29.3073 104.996 29.3009 104.996 29.2966C104.996 29.2902 104.996 29.2838 104.996 29.2795C104.996 29.2731 104.996 29.2667 104.996 29.2624C104.996 29.256 104.996 29.2496 104.996 29.2453C104.996 29.2389 104.996 29.2325 104.996 29.2282C104.996 29.2218 104.996 29.2154 104.996 29.2111C104.996 29.2047 104.996 29.1983 104.996 29.194C104.996 29.1876 104.996 29.1811 104.996 29.1769C104.996 29.1705 104.996 29.164 104.996 29.1598C104.996 29.1533 104.996 29.1469 104.996 29.1427C104.996 29.1362 104.996 29.1298 104.996 29.1255C104.996 29.1191 104.996 29.1127 104.996 29.1084C104.996 29.102 104.996 29.0956 104.996 29.0913C104.996 29.0849 104.996 29.0785 104.996 29.0742C104.996 29.0678 104.996 29.0614 104.996 29.0571C104.996 29.0507 104.996 29.0443 104.996 29.04C104.996 29.0336 104.996 29.0272 104.996 29.0229C104.996 29.0165 104.996 29.01 104.996 29.0058C104.996 28.9994 104.996 28.9929 104.996 28.9887C104.996 28.9822 104.996 28.9758 104.996 28.9716C104.996 28.9651 104.996 28.9587 104.996 28.9544C104.996 28.948 104.996 28.9416 104.996 28.9373C104.996 28.9309 104.996 28.9245 104.996 28.9202C104.996 28.9138 104.996 28.9074 104.996 28.9031C104.996 28.8967 104.996 28.8903 104.996 28.886C104.996 28.8796 104.996 28.8732 104.996 28.8689C104.996 28.8625 104.996 28.8561 104.996 28.8518C104.996 28.8454 104.996 28.839 104.996 28.8347C104.996 28.8283 104.996 28.8218 104.996 28.8176C104.996 28.8111 104.996 28.8047 104.996 28.8005C104.996 28.794 104.996 28.7876 104.996 28.7833C104.996 28.7769 104.996 28.7705 104.996 28.7662C104.996 28.7598 104.996 28.7534 104.996 28.7491C104.996 28.7427 104.996 28.7363 104.996 28.732C104.996 28.7256 104.996 28.7192 104.996 28.7149C104.996 28.7085 104.996 28.7021 104.996 28.6978C104.996 28.6914 104.996 28.685 104.996 28.6807C104.996 28.6743 104.996 28.6679 104.996 28.6636L104.998 28.9972Z" fill="#01073C"/>
<path fill-rule="evenodd" clip-rule="evenodd" d="M31.8985 39.5433L30.637 41.8531L25.5222 42.1547L33.1044 28.2934L39.7549 27.8999L44.4412 41.0361L39.3265 41.3377L38.5468 39.1476L31.8964 39.5411L31.8985 39.5433ZM36.0088 32.0362L33.6698 36.3095L37.4545 36.0849L36.0088 32.0341V32.0362ZM61.3126 40.0394L68.899 26.1782L75.5452 25.7847L80.2358 38.9209L75.1211 39.2224L74.3393 37.0324L67.6932 37.4259L66.4273 39.7357L61.3126 40.0373V40.0394ZM71.8012 29.9189L69.4623 34.1921L73.247 33.9675L71.8012 29.9167V29.9189ZM50.5027 36.6559L50.0679 40.7067L44.9531 41.0083L46.401 27.5085L57.393 26.8583C60.3616 26.6829 62.5356 28.6549 62.255 31.2641C62.043 33.2404 60.4858 35.0134 58.4532 35.8347L61.3126 40.0394L55.6902 40.3731L53.0579 36.5041L50.5027 36.6559ZM51.1302 30.8065L50.8882 33.0564L56.2578 32.7399C56.9646 32.6971 57.5901 32.1603 57.6565 31.54C57.7228 30.9198 57.2045 30.4493 56.4999 30.4921L51.1324 30.8086L51.1302 30.8065ZM21.9432 42.3685L9.15849 43.1257L10.6064 29.6259L22.6243 28.9158C24.7426 28.7896 26.2955 30.1991 26.0963 32.064C25.9549 33.3858 24.9675 34.5835 23.6481 35.2101C25.4109 35.4796 26.6039 36.8249 26.4197 38.5273C26.2055 40.5164 24.2007 42.2359 21.9432 42.3685ZM15.3356 32.9238L15.1428 34.7225L20.2576 34.4209C20.823 34.3867 21.3199 33.9568 21.3735 33.4606C21.427 32.9645 21.0136 32.588 20.4503 32.6201L15.3356 32.9238ZM14.6374 39.447L20.264 39.1134C20.8252 39.0813 21.3264 38.6493 21.3799 38.1531C21.4334 37.6569 21.0179 37.2805 20.4568 37.3125L14.8301 37.6462L14.6374 39.4449V39.447Z" fill="white"/>
<path fill-rule="evenodd" clip-rule="evenodd" d="M42.0531 15.5978L38.474 15.8096L38.8617 12.1887L51.1345 11.4636L50.7468 15.0845L47.1678 15.2963L46.4931 21.5842L50.0722 21.3725L49.6845 24.9934L37.4117 25.7184L37.7994 22.0996L41.3784 21.8879L42.0531 15.5978Z" fill="white"/>
<path fill-rule="evenodd" clip-rule="evenodd" d="M57.9305 14.4152L56.8446 24.5401L51.7299 24.8416L53.1778 11.3418L61.3511 10.8392L64.8766 20.7117L65.9625 10.5868L71.0729 10.2831L69.6251 23.7829L61.4518 24.2877L57.9305 14.4152Z" fill="white"/>
<path fill-rule="evenodd" clip-rule="evenodd" d="M31.9821 12.6165L21.4763 13.2175L20.0284 26.7173L25.1431 26.4157L25.4837 23.2461L30.8769 22.9274C34.1089 22.7349 36.979 20.2732 37.2853 17.4266C37.5894 14.5799 35.2163 12.4283 31.9821 12.6187V12.6165ZM32.5304 17.7067C32.4383 18.5772 31.5601 19.3301 30.5727 19.3878L25.8671 19.6658L26.2055 16.5155L30.9111 16.2374C31.8985 16.1797 32.6246 16.8363 32.5325 17.7067H32.5304Z" fill="white"/>
<path fill-rule="evenodd" clip-rule="evenodd" d="M18.9233 22.8204C18.7048 24.8651 16.6315 27.1407 10.4972 27.5043C4.79992 27.8422 1.283 26.1975 1.283 26.1975L2.92152 22.4611C2.92152 22.4611 7.45796 23.6802 10.9106 23.477C12.4035 23.3894 13.2281 23.1562 13.2667 22.8055C13.3309 22.2066 11.7395 22.0034 8.55031 21.8537C3.50839 21.6185 1.92556 20.3096 2.13546 18.359C2.34536 16.4085 4.73781 13.9874 10.8721 13.6238C15.8069 13.3329 19.3924 14.8771 19.3924 14.8771L17.394 18.5729C17.394 18.5729 13.815 17.4415 9.84399 17.6768C8.32541 17.7666 7.44083 17.9462 7.40228 18.3055C7.33588 18.9258 8.50105 19.0562 11.8638 19.2145C16.4152 19.4263 19.1311 20.8699 18.9233 22.8204Z" fill="white"/>
<path d="M103.574 27.9406C103.569 27.9299 103.565 27.9171 103.561 27.9064L97.5593 13.0506C97.6535 12.9394 97.7456 12.8261 97.8377 12.7127C98.5124 11.9984 99.005 11.2284 99.3349 10.606C100.254 9.15382 101.027 7.58612 100.847 5.90078C100.811 5.56286 100.742 5.23135 100.639 4.91268C100.226 3.6337 99.2984 2.45097 98.0969 1.67033C97.4607 1.25541 96.7668 1.15917 96.197 1.40299C95.6445 1.63825 95.2675 2.15797 95.1347 2.86803C95.0126 3.51607 95.1347 4.14914 95.2439 4.70736C95.3018 5.00892 95.3574 5.29124 95.3746 5.56072C95.4067 6.06119 95.2739 6.55096 94.9848 7.02362C94.4193 6.80761 93.7896 6.72848 93.1021 6.7905C91.7013 6.91669 90.6411 7.44924 89.9514 8.37104C89.8743 8.4737 89.8036 8.58064 89.7394 8.68757C89.7179 8.68543 89.6987 8.68116 89.6773 8.67902C88.7541 7.53906 88.3943 6.53599 88.5785 5.6206C88.7755 4.63464 88.6642 3.89891 88.2508 3.43052C88.0302 3.18029 87.6146 2.8937 86.8928 2.9493C85.582 3.04769 84.676 4.29458 84.389 5.41314C84.2048 6.13604 84.2198 6.94449 84.4319 7.79144C82.2921 7.35513 80.765 6.95305 80.1781 6.77553C80.0261 6.73062 79.8676 6.82258 79.8354 6.97871C79.8076 7.11773 79.7862 7.25461 79.7712 7.38507C79.6448 8.55925 80.1888 9.6329 81.0884 10.2724C78.424 10.9611 76.205 11.6711 75.2754 11.9791C73.6262 12.4732 72.1719 13.5532 71.1888 15.0504C70.0879 16.7271 69.6874 18.7547 70.0279 20.917C70.3299 22.8311 71.2081 24.7539 72.5017 26.3323C73.2385 27.2305 74.166 27.885 75.1169 28.1716C75.4446 28.27 75.7766 28.3235 76.1065 28.3363C76.3849 28.7127 77.2481 29.6987 78.9808 30.2911L81.1377 35.5289C81.6667 37.0624 83.3695 38.0526 85.9333 38.3221C86.4002 38.3713 86.8886 38.3948 87.3919 38.3948C89.4802 38.3948 91.8427 37.9778 94.1966 37.1843C100.489 35.0627 104.606 31.0054 103.571 27.9449L103.574 27.9406Z" fill="#FFA13E"/>
<path d="M87.3918 39.6587C86.8435 39.6587 86.308 39.6309 85.8004 39.5775C82.7397 39.2567 80.6643 37.9777 79.951 35.9758L78.0148 31.277C76.7639 30.7509 75.9458 30.0515 75.4703 29.5446C75.2261 29.5082 74.9841 29.4526 74.7485 29.382C73.5597 29.0227 72.4138 28.2228 71.5186 27.1321C70.0857 25.3826 69.1111 23.2438 68.7748 21.1115C68.3829 18.6348 68.8519 16.2972 70.1285 14.353C71.2637 12.6249 72.9557 11.3524 74.8941 10.7664C75.5559 10.5482 77.0295 10.0734 78.8929 9.5494C78.5631 8.83934 78.4239 8.04586 78.5096 7.24811C78.5288 7.07273 78.5567 6.89735 78.5909 6.72197C78.6766 6.30064 78.9379 5.93277 79.3085 5.71248C79.679 5.49005 80.1309 5.43444 80.5443 5.56063C80.9298 5.67612 81.7866 5.90711 82.9967 6.18301C83.0139 5.81086 83.0696 5.44942 83.1595 5.09652C83.5686 3.50101 84.8537 1.82851 86.8007 1.68307C87.7688 1.61036 88.6212 1.93117 89.2038 2.5899C89.8956 3.36841 90.1034 4.47201 89.825 5.86647C89.78 6.09318 89.8078 6.34983 89.9106 6.63642C90.7374 6.01405 91.7805 5.63763 92.9906 5.52855C93.3697 5.49433 93.7403 5.49433 94.1001 5.52855C94.0808 5.35959 94.0423 5.16068 94.0016 4.95109C93.8773 4.31374 93.7231 3.5224 93.8902 2.63482C94.1001 1.51411 94.7598 0.639363 95.7001 0.237278C96.6682 -0.175501 97.7969 -0.04076 98.7929 0.607282C100.234 1.54406 101.348 2.9706 101.849 4.5212C101.98 4.92328 102.068 5.34248 102.113 5.76595C102.336 7.87904 101.395 9.71836 100.436 11.2412C100.147 11.7823 99.6839 12.5394 99.0264 13.2922L104.739 27.4315C104.754 27.47 104.767 27.5021 104.777 27.5342C106.06 31.3305 101.687 35.9929 94.6034 38.3798C92.1253 39.2139 89.6322 39.6566 87.3918 39.6566V39.6587ZM81.1355 8.34742C81.264 8.69604 81.4996 9.00616 81.8251 9.23715L84.0505 10.8155L81.4096 11.4999C78.7387 12.1908 76.5112 12.9072 75.6759 13.1831L75.6416 13.1938C74.2665 13.6045 73.065 14.5113 72.2532 15.7454C71.3279 17.1527 70.9938 18.8744 71.2851 20.718C71.5528 22.4119 72.3346 24.1207 73.4869 25.5259C74.0652 26.2317 74.7763 26.7407 75.4874 26.9567C75.7016 27.0209 75.9286 27.0594 76.1599 27.0679L76.7682 27.0914L77.1302 27.5791C77.3015 27.8101 77.9698 28.6014 79.3941 29.089L79.9382 29.2751L82.3392 35.1118C82.6926 36.1362 84.0527 36.8463 86.066 37.058C86.4858 37.1029 86.9313 37.1243 87.3918 37.1243C89.358 37.1243 91.5706 36.7287 93.7917 35.9801C99.7696 33.9654 103.051 30.4193 102.376 28.3619L96.0963 12.8174L96.5911 12.2335C96.6789 12.1309 96.7646 12.0261 96.8502 11.9191L96.9166 11.8443C97.5378 11.1877 97.964 10.4905 98.2125 10.0199L98.2639 9.93224C98.9985 8.7709 99.731 7.39782 99.5875 6.03757C99.5618 5.78734 99.5083 5.54138 99.4333 5.30612C99.1077 4.29877 98.3688 3.36199 97.4071 2.73748C97.1394 2.56424 96.8674 2.50222 96.6982 2.57279C96.4968 2.65834 96.4154 2.9428 96.3855 3.10534C96.3083 3.51598 96.4026 4.00148 96.4947 4.46987C96.5589 4.79923 96.6232 5.13502 96.6468 5.48577C96.696 6.24717 96.5033 6.98932 96.0727 7.69083L95.5223 8.5891L94.537 8.21268C94.1536 8.06725 93.7124 8.01592 93.2219 8.05869C92.181 8.1528 91.4442 8.50569 90.973 9.13449C90.9237 9.19865 90.8787 9.26923 90.8338 9.34194L90.4011 10.067L89.026 9.87877L88.6919 9.4831C87.5182 8.03089 87.0727 6.68989 87.334 5.37884C87.4711 4.69444 87.3768 4.36293 87.2997 4.27738C87.2376 4.2068 87.0448 4.21536 86.9892 4.21963C86.338 4.26882 85.7983 5.03664 85.6184 5.73387C85.4877 6.24289 85.5027 6.8503 85.6633 7.48979L86.1517 9.44033L84.1769 9.03824C82.9753 8.79442 81.9365 8.55274 81.1333 8.3517L81.1355 8.34742Z" fill="#FFA13E"/>
<path d="M81.7695 27.1535C80.7971 27.1535 79.8268 26.8947 78.9272 26.3728C76.7832 25.1302 75.2861 22.4375 75.1147 19.5117C75.0955 19.1802 75.3482 18.8957 75.6802 18.8765C76.0122 18.8594 76.297 19.1096 76.3163 19.4411C76.4962 22.5209 78.1605 24.5399 79.5312 25.3334C81.1483 26.2702 83.061 26.1226 84.6481 24.9399C84.9137 24.741 85.2907 24.7966 85.4899 25.0618C85.6891 25.327 85.6334 25.7034 85.3678 25.9023C84.2562 26.7321 83.0096 27.1513 81.7695 27.1513V27.1535Z" fill="#01073C"/>
<path d="M82.0374 30.7593C77.6381 30.7593 76.0831 28.3083 76.0081 28.1864C75.8346 27.9041 75.9246 27.5341 76.2095 27.3609C76.4922 27.1898 76.8606 27.2775 77.0341 27.5576C77.1133 27.6838 78.9039 30.3701 84.4727 29.3135C90.1958 28.2292 94.1239 23.5945 94.2696 21.5328C94.2931 21.2013 94.5823 20.9553 94.9121 20.9767C95.2441 21.0002 95.4926 21.2868 95.469 21.6183C95.2741 24.3752 90.879 29.3221 84.6955 30.4963C83.7124 30.6824 82.8278 30.7615 82.0374 30.7615V30.7593Z" fill="#01073C"/>
<path d="M76.2608 28.3382C75.8816 28.3382 75.4961 28.2805 75.117 28.1671C74.1682 27.8806 73.2386 27.2261 72.5018 26.3278C71.2081 24.7494 70.33 22.8267 70.028 20.9125C69.6874 18.7502 70.0879 16.7227 71.1888 15.0459C72.3754 13.2408 74.2431 12.0367 76.3164 11.7437C78.2677 11.4678 80.1739 12.0281 81.6796 13.3199C82.742 14.231 83.6523 15.4844 84.3869 17.0499C85.0274 18.4166 85.4729 19.8624 85.9034 21.2633C85.9998 21.5798 85.822 21.9134 85.5071 22.0097C85.1901 22.1081 84.856 21.9284 84.7596 21.614C84.342 20.2538 83.9093 18.8465 83.3032 17.5568C82.6413 16.1474 81.8317 15.0267 80.9 14.2268C79.6577 13.1617 78.0899 12.6997 76.4835 12.9264C74.7529 13.1702 73.1872 14.1819 72.1912 15.7004C70.0986 18.8871 71.3666 23.0491 73.4292 25.5664C74.0161 26.2829 74.74 26.8005 75.464 27.0186C76.0294 27.1897 76.6377 27.1748 77.1325 26.9759C77.5994 26.7877 77.925 26.4176 78.3019 25.9899C78.3812 25.9001 78.4604 25.8102 78.5418 25.7204C78.7646 25.4766 79.1415 25.4573 79.3879 25.6776C79.6342 25.9001 79.6513 26.2765 79.4307 26.5224C79.3536 26.608 79.2786 26.6935 79.2058 26.777C78.7689 27.2753 78.3169 27.7929 77.5823 28.0859C77.171 28.2506 76.7213 28.334 76.265 28.334L76.2608 28.3382Z" fill="#01073C"/>
<path d="M79.0814 14.8215C79.5291 14.8151 79.8568 15.0654 80.1481 15.384C80.4543 15.7198 80.7371 16.1091 80.7928 16.5582C80.9041 17.495 80.0602 18.0147 79.272 18.2179C78.8222 18.3334 77.8049 18.6071 77.3315 18.2371C76.1899 17.3453 77.2758 15.6963 78.1925 15.106C78.4581 14.9349 78.7687 14.8237 79.0836 14.8194L79.0814 14.8215Z" fill="#01073C"/>
<path d="M71.7243 15.3411C71.4138 15.386 71.1396 15.6127 70.964 15.88C70.647 16.3591 70.3407 17.0949 70.4906 17.6745C70.7819 18.8037 72.7246 18.9577 73.4164 18.1535C73.7163 17.8049 73.7355 17.2788 73.5706 16.851C73.3629 16.3163 72.9024 15.8159 72.414 15.5207C72.2427 15.4181 72.0499 15.3368 71.8486 15.3325C71.8079 15.3325 71.765 15.3325 71.7265 15.3411H71.7243Z" fill="#01073C"/>
<path d="M75.0015 13.2965C74.753 13.2965 74.5217 13.1404 74.436 12.8944C74.3268 12.5822 74.4938 12.2421 74.8065 12.133C74.8601 12.1138 79.8934 10.3793 85.081 9.34838C84.8968 9.00832 84.7297 8.69178 84.6848 8.57629C84.2521 7.44917 84.1493 6.35626 84.3913 5.41094C84.6783 4.29237 85.5843 3.04548 86.8952 2.94709C87.617 2.89363 88.0325 3.17808 88.2531 3.42831C88.6665 3.8967 88.7778 4.63243 88.5808 5.6184C88.3859 6.60008 88.81 7.68015 89.8809 8.91849C90.0972 9.16872 90.0694 9.54514 89.8188 9.76116C89.5682 9.97717 89.1912 9.94937 88.9749 9.69913C87.6469 8.16137 87.1329 6.74979 87.4049 5.38313C87.5377 4.71584 87.4606 4.33942 87.3535 4.21965C87.2785 4.13624 87.1093 4.12982 86.9808 4.13838C86.2976 4.18971 85.7321 4.98319 85.5479 5.70608C85.3209 6.59367 85.5586 7.52188 85.7985 8.14426C85.8478 8.25975 86.214 8.93346 86.5225 9.4874C86.6167 9.65636 86.6231 9.85954 86.5417 10.0328C86.4604 10.206 86.2976 10.3322 86.107 10.3664C80.7373 11.3481 75.2478 13.2409 75.1942 13.2602C75.13 13.2815 75.0636 13.2944 74.9972 13.2944L75.0015 13.2965Z" fill="#01073C"/>
<path d="M87.3917 38.3904C86.8884 38.3904 86.4 38.3669 85.9331 38.3177C83.3693 38.0482 81.6687 37.058 81.1375 35.5245L78.8778 30.0407C78.7472 29.7242 78.8993 29.3606 79.2163 29.2302C79.5354 29.0997 79.8974 29.2515 80.028 29.5681L82.2941 35.0711C82.2984 35.0839 82.3048 35.0968 82.3091 35.1096C82.6604 36.1512 84.029 36.8719 86.0638 37.0858C88.2956 37.3189 91.0436 36.9361 93.8001 36.0079C99.793 33.9889 103.079 30.4279 102.402 28.3575L96.2654 13.1681C96.1776 12.95 96.2204 12.6997 96.3768 12.5244C96.9572 11.8699 97.5184 11.1278 98.0881 10.253C98.9084 8.99542 99.7695 7.53038 99.611 6.03539C99.5853 5.78302 99.5317 5.53492 99.4546 5.29966C99.1269 4.28589 98.3837 3.34484 97.4177 2.71605C97.1393 2.53426 96.8651 2.47223 96.6852 2.54923C96.471 2.64119 96.3875 2.9342 96.3575 3.10103C96.2804 3.51808 96.3704 3.98219 96.4667 4.47624C96.531 4.80133 96.5952 5.13926 96.6188 5.48787C96.6788 6.43106 96.3575 7.36356 95.6914 8.18484C95.4751 8.45004 95.0831 8.49068 94.8175 8.27467C94.5519 8.05865 94.5112 7.66726 94.7275 7.40206C95.2009 6.81818 95.4215 6.20008 95.3808 5.56701C95.3637 5.29752 95.308 5.01307 95.2502 4.71364C95.1409 4.15543 95.0188 3.5245 95.1409 2.87432C95.2737 2.16639 95.6507 1.64667 96.2033 1.40927C96.7752 1.16545 97.467 1.2617 98.1031 1.67662C99.3047 2.45726 100.23 3.63999 100.645 4.91896C100.748 5.23764 100.819 5.56915 100.853 5.90707C101.044 7.71645 100.14 9.39109 99.1355 10.9331C98.6129 11.733 98.0967 12.4324 97.5655 13.0591L103.567 27.9148C103.571 27.9255 103.576 27.9362 103.58 27.949C104.614 31.0096 100.496 35.069 94.2049 37.1885C91.851 37.9819 89.4864 38.399 87.4003 38.399L87.3917 38.3904Z" fill="#01073C"/>
<path d="M97.3944 12.8731C97.0753 12.8731 96.8097 12.6207 96.7968 12.2999C96.7968 12.2743 96.6769 9.79117 95.3125 8.59775C94.7514 8.10798 94.0638 7.90693 93.2135 7.98393C92.1662 8.07803 91.3908 8.45018 90.9153 9.08966C90.05 10.2467 90.367 11.9813 90.3713 11.9984C90.4355 12.3213 90.2256 12.6379 89.9022 12.702C89.5788 12.7683 89.2618 12.5566 89.1976 12.2336C89.1783 12.1417 88.7606 9.97511 89.9558 8.37532C90.6454 7.45352 91.7057 6.92097 93.1064 6.79478C94.2866 6.68785 95.2975 6.99369 96.1072 7.70375C97.8592 9.24152 97.9899 12.1331 97.9941 12.255C98.007 12.5844 97.75 12.8624 97.418 12.8753C97.4094 12.8753 97.403 12.8753 97.3944 12.8753V12.8731Z" fill="#01073C"/>
<path d="M80.1781 6.7754C81.7695 7.25448 90.2919 9.40393 99.1699 9.33121C99.5233 9.32907 99.761 9.69052 99.6218 10.0135C98.9107 11.6539 96.424 15.7624 91.5342 14.6695C91.5342 14.6695 88.285 14.0557 86.2652 10.1974C86.2652 10.1974 84.751 11.0722 82.6434 10.854C80.8871 10.6722 79.5848 9.13658 79.7711 7.38495C79.7861 7.25448 79.8054 7.1176 79.8354 6.97858C79.8675 6.82459 80.026 6.73049 80.1781 6.7754Z" fill="#01073C"/>
</g>
<defs>
<clipPath id="clip0_37_76177">
<rect width="105" height="48" fill="white"/>
</clipPath>
</defs>
</svg>
