<svg width="20" height="20" viewBox="0 0 20 20" fill="none" xmlns="http://www.w3.org/2000/svg">
<g clip-path="url(#clip0_47023_175777)">
<path fill-rule="evenodd" clip-rule="evenodd" d="M16.8466 4.8476C17.1803 4.51454 17.6271 4.31879 18.0986 4.29916C18.3454 4.29112 18.5913 4.33272 18.8217 4.42149C19.0521 4.51026 19.2623 4.64438 19.4397 4.81587C19.6171 4.98736 19.7581 5.19273 19.8544 5.41974C19.9507 5.64675 20.0002 5.89077 20.0001 6.13728C20.0014 6.52261 19.8827 6.89882 19.6603 7.21383C19.5055 7.43321 19.3057 7.61535 19.0758 7.7491C18.8948 7.85436 18.7591 8.0355 18.7591 8.24485V10.3096C18.7591 10.8547 18.3135 11.2966 17.7638 11.2966H15.9303C15.6576 11.2966 15.4365 11.5177 15.4365 11.7904V18.4015C15.4365 18.8254 15.2678 19.232 14.9675 19.5317C14.6672 19.8315 14.2599 19.9999 13.8353 19.9999H3.44061C3.22959 20.0026 3.02016 19.963 2.82467 19.8837C2.62919 19.8043 2.45159 19.6867 2.30237 19.5377C2.15314 19.3887 2.03529 19.2115 1.95577 19.0163C1.87625 18.8212 1.83667 18.6121 1.83936 18.4015V1.59837C1.83936 1.17446 2.00806 0.767904 2.30836 0.468151C2.60865 0.168399 3.01593 0 3.44061 0H13.8353C14.2599 0 14.6672 0.168399 14.9675 0.468151C15.2678 0.767904 15.4365 1.17446 15.4365 1.59837V9.35645C15.4365 9.62915 15.6576 9.85023 15.9303 9.85023H17.0644C17.3371 9.85023 17.5582 9.62915 17.5582 9.35645V8.24628C17.5582 8.03622 17.4217 7.85461 17.2396 7.74992C17.002 7.61337 16.7959 7.4259 16.6371 7.19942C16.4108 6.87673 16.2919 6.49118 16.2972 6.09732C16.3169 5.62671 16.513 5.18066 16.8466 4.8476ZM7.74394 9.47945C7.47123 9.47945 7.25016 9.70052 7.25016 9.97323V12.2702C7.25016 12.5429 7.47123 12.764 7.74394 12.764H9.29837C9.57107 12.764 9.79215 12.5429 9.79215 12.2702V9.97323C9.79215 9.70052 9.57107 9.47945 9.29837 9.47945H7.74394ZM3.94097 9.47945C3.66827 9.47945 3.4472 9.70052 3.4472 9.97323V12.2702C3.4472 12.5429 3.66827 12.764 3.94097 12.764H5.4954C5.76811 12.764 5.98918 12.5429 5.98918 12.2702V9.97323C5.98918 9.70052 5.76811 9.47945 5.4954 9.47945H3.94097ZM13.1013 7.62541C13.374 7.62541 13.5951 7.40434 13.5951 7.13163V2.41521C13.5951 2.1425 13.374 1.92143 13.1013 1.92143H4.15456C3.88185 1.92143 3.66078 2.1425 3.66078 2.4152V7.13163C3.66078 7.40434 3.88185 7.62541 4.15456 7.62541H13.1013ZM13.1013 12.764C13.374 12.764 13.5951 12.5429 13.5951 12.2702V9.97323C13.5951 9.70052 13.374 9.47945 13.1013 9.47945H11.5469C11.2742 9.47945 11.0531 9.70052 11.0531 9.97323V12.2702C11.0531 12.5429 11.2742 12.764 11.5469 12.764H13.1013ZM3.941 15.2964C3.71088 15.2964 3.52434 15.4829 3.52434 15.713C3.52434 15.9431 3.71088 16.1297 3.941 16.1297H13.1784C13.4086 16.1297 13.5951 15.9431 13.5951 15.713C13.5951 15.4829 13.4086 15.2964 13.1784 15.2964H3.941Z" fill="#655DD0"/>
</g>
<defs>
<clipPath id="clip0_47023_175777">
<rect width="20" height="20" fill="white"/>
</clipPath>
</defs>
</svg>
