<svg width="20" height="20" viewBox="0 0 20 20" fill="none" xmlns="http://www.w3.org/2000/svg">
<g clip-path="url(#clip0_47023_175779)">
<path d="M14.5939 0H5.40598C4.00289 0 2.91663 1.20773 2.91663 2.657V17.343C2.91663 18.7923 4.04815 20 5.40598 20H14.5939C15.9518 20 17.0833 18.7923 17.0833 17.343V2.657C17.0833 1.20773 15.9518 0 14.5939 0ZM5.27019 4.34783C4.86285 4.25121 4.59128 3.91304 4.59128 3.47826C4.59128 2.56039 5.63228 1.78744 5.94911 1.5942C5.99437 1.54589 6.08489 1.54589 6.13015 1.5942C6.44698 1.78744 7.48798 2.56039 7.48798 3.47826C7.48798 3.91304 7.21641 4.25121 6.85433 4.34783C6.5375 4.39614 6.26593 4.29952 6.08489 4.05797C5.85859 4.29952 5.58702 4.39614 5.27019 4.34783ZM10.2036 13.5749C10.0679 13.6715 9.88681 13.6715 9.79629 13.5749C8.98159 13.0435 6.26593 11.0145 6.26593 8.64734C6.26593 7.53623 6.94485 6.61836 7.94059 6.37681C8.75528 6.23188 9.52472 6.57005 9.97733 7.14976C10.4299 6.52174 11.1994 6.18357 12.0593 6.37681C13.0551 6.57005 13.7792 7.53623 13.734 8.64734C13.6887 11.0145 10.9731 13.0435 10.2036 13.5749ZM14.0056 18.4058C13.9603 18.4541 13.8698 18.4541 13.8245 18.4058C13.5077 18.2126 12.4667 17.4396 12.4667 16.5217C12.4667 16.087 12.7382 15.7488 13.1003 15.6522C13.4172 15.6039 13.6887 15.7005 13.8698 15.942C14.0508 15.7005 14.3676 15.5556 14.6845 15.6522C15.0918 15.7488 15.3181 16.087 15.3181 16.5217C15.3634 17.4396 14.3224 18.2126 14.0056 18.4058Z" fill="#655DD0"/>
</g>
<defs>
<clipPath id="clip0_47023_175779">
<rect width="20" height="20" fill="white"/>
</clipPath>
</defs>
</svg>
