<svg width="20" height="20" viewBox="0 0 20 20" fill="none" xmlns="http://www.w3.org/2000/svg">
<g clip-path="url(#clip0_47023_175780)">
<g clip-path="url(#clip1_47023_175780)">
<path d="M0.515038 6.38925C0.0486917 7.9457 1.51283 8.90598 1.51283 8.90598C3.37453 10.127 5.5209 10.1163 7.65109 9.96151L7.66396 10.0409C5.72392 10.6676 3.60293 11.3767 2.42492 13.1704C2.06082 13.7246 1.8111 14.4275 1.9321 15.0965C2.04243 15.7066 2.45104 16.2557 3.00381 16.5363C3.55659 16.8173 4.24103 16.8236 4.79858 16.5525L4.78902 16.6007C4.78902 16.6007 4.59483 18.2005 6.13142 18.7294C7.66764 19.2583 8.68676 17.8346 8.68676 17.8346C9.71692 16.3947 10.3683 14.6327 10.561 12.8975C11.4631 15.1384 11.9324 15.5121 11.5426 19.5546C11.4996 19.7528 11.6257 19.9488 11.8243 19.9919C11.8504 19.9977 11.8769 20 11.9027 20C12.0718 20 12.2245 19.8826 12.262 19.7101C12.7555 15.657 12.1726 14.8592 11.23 12.5658C12.1869 14.0354 13.3977 15.337 15.0692 16.0608C15.0692 16.0608 16.6761 16.7566 17.7206 15.5121C18.7651 14.2675 17.775 12.9961 17.775 12.9961L17.7419 12.9597C18.3594 12.9045 18.9431 12.5466 19.2722 12.0214C19.6014 11.4959 19.6691 10.8151 19.4495 10.2351C19.2086 9.59924 18.6327 9.12554 18.035 8.83794C16.1016 7.90708 13.9184 8.39145 11.9324 8.85301L11.9026 8.77836C13.8085 7.81403 15.654 6.71805 16.6209 4.7129C16.6209 4.7129 17.3815 3.13586 16.1803 2.04171C14.9791 0.947564 13.6684 1.8854 13.6684 1.8854L13.6308 1.91703C13.6007 1.29769 13.2671 0.700415 12.7555 0.349919C12.2439 -0.000575877 11.5661 -0.095463 10.978 0.100196C10.3329 0.314981 9.83644 0.871065 9.52457 1.45657C8.51611 3.35064 8.91148 5.55181 9.29213 7.55475L9.2594 7.56799C8.55436 5.65479 7.75995 3.56432 5.91995 2.46025C5.35136 2.11895 4.63896 1.89791 3.97549 2.04576C3.37012 2.18073 2.83831 2.6114 2.58013 3.17484C2.32195 3.73865 2.34364 4.42273 2.63677 4.96888L2.58822 4.96116C2.58785 4.96189 0.981384 4.8328 0.515038 6.38925Z" fill="#655DD0"/>
</g>
</g>
<defs>
<clipPath id="clip0_47023_175780">
<rect width="20" height="20" fill="white"/>
</clipPath>
<clipPath id="clip1_47023_175780">
<rect width="20" height="20" fill="white"/>
</clipPath>
</defs>
</svg>
